<?xml version="1.0" encoding="UTF-8" standalone="yes"?>
<svg xmlns="http://www.w3.org/2000/svg" xmlns:xlink="http://www.w3.org/1999/xlink" width="262.451pt" height="517.153pt" version="1.1" viewBox="-196.077 380.806 262.451 517.153">
  <!--
	Exported with Concepts: Smarter Sketching
	Version: 1944 on iOS 16.4
	https://concepts.app/
	-->
  <title>B60312EC-68C3-427F-A387-D41719E21815</title>
  <desc>Drawing exported from Concepts: Smarter Sketching</desc>
  <defs></defs>
  <g id="Stift" opacity="1.000">
    <path id="STROKE_eb29c03d-b76b-47d6-899b-e5166571b47b" opacity="1.000" fill="none" stroke="#a2afb8" stroke-width="63.485" stroke-opacity="1.000" stroke-linecap="round" stroke-linejoin="round" d="M -67.079 860.796 L -158.913 554.058 L 29.212 555.605 Z"></path>
    <path id="STROKE_e2788c79-6e00-4d68-9692-d7735f3cbb1a" opacity="1.000" fill="none" stroke="#a2afb8" stroke-width="63.485" stroke-opacity="1.000" stroke-linecap="round" stroke-linejoin="round" d="M -100.274 526.843 L -100.274 417.970 L -25.716 417.970 L -25.716 526.843 Z"></path>
    <path id="STROKE_0b9984db-ab91-4321-80df-6ea09e7dfb8f" opacity="1.000" fill="none" stroke="#a2afb8" stroke-width="63.485" stroke-opacity="1.000" stroke-linecap="round" stroke-linejoin="round" d="M -25.716 417.970 L 29.212 555.605 "></path>
    <path id="STROKE_e52ba20c-a0b9-4406-9aec-7f0a427e733a" opacity="1.000" fill="none" stroke="#a2afb8" stroke-width="63.485" stroke-opacity="1.000" stroke-linecap="round" stroke-linejoin="round" d="M -100.274 417.970 L -158.913 554.058 "></path>
    <path id="STROKE_a1803d09-8fc5-4197-a10e-793a5ab86466" opacity="1.000" fill="none" stroke="#a2afb8" stroke-width="5.511" stroke-opacity="1.000" stroke-linecap="round" stroke-linejoin="round" d="M -80.000 551.609 L -80.000 560.000 L -64.000 560.000 L -64.000 560.000 "></path>
    <path id="STROKE_26e1a5ff-277c-47a8-acee-10e8858d6e0a" opacity="1.000" fill="none" stroke="#a2afb8" stroke-width="5.511" stroke-opacity="1.000" stroke-linecap="round" stroke-linejoin="round" d="M -65.886 512.453 Q -64.449 513.182 -64.802 512.984 Q -63.214 513.076 -61.513 510.790 Q -59.812 508.504 -55.076 505.673 Q -50.340 502.842 -47.921 501.516 Q -45.503 500.190 -43.499 498.822 Q -41.496 497.453 -41.108 496.178 Q -40.719 494.902 -41.640 492.579 Q -42.560 490.255 -52.647 486.550 Q -62.734 482.845 -76.892 478.547 Q -76.837 478.235 -71.561 478.956 Q -66.285 479.677 -60.592 482.672 Q -61.043 482.889 -65.935 482.084 Q -70.828 481.279 -73.777 481.306 Q -76.725 481.332 -78.158 481.632 Q -79.591 481.931 -80.153 482.494 Q -80.715 483.057 -81.316 484.502 Q -81.917 485.946 -76.796 489.553 Q -71.675 493.160 -67.461 495.564 Q -63.247 497.968 -60.705 499.633 Q -58.164 501.298 -52.651 502.734 Q -52.651 502.508 -53.172 501.578 "></path>
    <path id="STROKE_637c9e2f-57aa-43fd-bbdf-26181c215753" opacity="1.000" fill="none" stroke="#a2afb8" stroke-width="30.000" stroke-opacity="1.000" stroke-linecap="round" stroke-linejoin="round" d="M -74.828 563.609 Q -74.837 563.570 -74.818 563.490 Q -74.800 563.409 -74.844 565.501 Q -74.888 567.592 -67.853 566.901 Q -60.817 566.209 -55.669 565.555 Q -50.520 564.901 -46.816 564.088 Q -43.113 563.275 -41.199 562.288 Q -39.285 561.301 -38.603 559.870 Q -37.922 558.439 -39.872 555.893 Q -41.821 553.346 -56.298 547.195 L -56.298 547.156 Q -55.919 547.198 -52.184 547.075 Q -48.449 546.952 -46.028 546.817 Q -43.607 546.682 -42.244 546.351 Q -40.881 546.019 -40.656 545.652 Q -40.431 545.285 -40.174 544.151 Q -39.916 543.017 -48.233 538.478 Q -56.550 533.939 -61.118 531.527 Q -65.686 529.114 -67.840 527.758 Q -69.994 526.402 -71.036 525.417 Q -72.077 524.431 -72.416 523.711 Q -72.755 522.991 -72.380 521.673 Q -72.006 520.355 -64.201 518.692 Q -56.397 517.029 -52.239 516.497 Q -48.082 515.965 -46.503 515.539 Q -44.923 515.114 -43.874 514.761 Q -42.825 514.407 -42.781 513.723 Q -42.738 513.040 -43.543 512.443 Q -44.348 511.846 -47.635 510.828 Q -50.921 509.810 -53.577 509.291 Q -56.234 508.771 -62.914 507.165 Q -69.595 505.559 -75.891 503.273 L -75.860 503.070 Q -74.934 503.093 -67.097 502.282 Q -59.260 501.470 -55.096 501.238 Q -50.932 501.007 -48.889 500.675 Q -46.846 500.343 -45.767 499.180 Q -44.689 498.018 -47.387 496.558 Q -50.084 495.097 -56.749 493.110 Q -63.414 491.123 -74.766 487.109 Q -75.341 486.970 -69.020 486.428 Q -62.698 485.887 -59.311 485.430 Q -55.923 484.973 -54.378 484.533 Q -52.832 484.092 -52.204 483.930 Q -51.576 483.769 -51.453 483.004 Q -51.329 482.240 -51.669 481.412 Q -52.010 480.585 -56.424 478.964 Q -60.837 477.344 -73.974 472.719 Q -73.185 472.370 -68.601 471.628 Q -64.017 470.886 -61.261 470.122 Q -58.504 469.357 -57.325 468.810 Q -56.147 468.263 -56.062 468.046 Q -55.978 467.829 -55.847 467.130 Q -55.716 466.431 -61.631 465.526 Q -67.546 464.621 -74.099 462.797 Q -74.334 462.647 -68.470 462.020 Q -62.607 461.394 -59.322 460.733 Q -56.037 460.072 -54.336 459.681 Q -52.636 459.290 -52.276 456.727 Q -52.800 455.562 -74.036 451.914 Q -74.511 451.414 -42.250 452.750 Q -41.500 452.964 -72.056 448.891 Q -71.736 449.506 -60.655 451.078 Q -59.945 451.252 -64.986 452.263 Q -70.028 453.275 -73.973 454.796 Q -77.917 456.318 -80.455 458.118 Q -82.993 459.918 -84.365 461.588 Q -85.737 463.259 -86.261 465.846 Q -86.784 468.433 -84.844 471.589 Q -82.905 474.746 -76.673 480.050 Q -70.441 485.354 -66.960 488.187 Q -63.480 491.019 -59.000 494.701 Q -54.521 498.383 -50.787 501.275 Q -47.053 504.168 -42.781 508.726 Q -38.509 513.283 -36.334 515.811 Q -34.160 518.339 -33.273 519.735 Q -32.386 521.131 -31.487 522.543 Q -30.588 523.955 -29.552 526.723 Q -28.516 529.492 -28.407 532.006 Q -28.297 534.520 -29.530 536.786 Q -30.763 539.051 -34.202 541.444 Q -37.641 543.838 -41.666 545.659 Q -45.690 547.480 -52.959 549.191 Q -60.228 550.903 -67.578 552.156 Q -74.928 553.410 -78.684 554.009 Q -82.441 554.608 -84.595 555.230 Q -86.749 555.852 -87.394 556.717 Q -88.038 557.581 -88.460 559.187 Q -88.881 560.792 -83.290 562.535 Q -77.699 564.278 -73.307 565.022 Q -68.915 565.765 -66.385 566.257 Q -63.856 566.749 -61.843 567.062 Q -62.331 567.578 -71.325 565.962 Q -80.319 564.347 -93.023 563.910 Q -105.728 563.473 -113.067 563.470 Q -120.406 563.466 -125.415 564.578 Q -125.843 565.960 -119.616 568.047 Q -113.389 570.134 -104.451 571.880 Q -95.513 573.626 -84.771 575.234 Q -83.936 575.155 -93.873 573.165 Q -103.811 571.175 -114.493 570.516 Q -115.565 571.985 -111.286 574.033 Q -107.006 576.082 -104.217 577.085 Q -101.428 578.088 -98.816 578.799 Q -96.205 579.510 -83.374 582.531 Q -83.648 582.073 -87.119 581.027 Q -90.590 579.981 -93.069 579.429 Q -95.549 578.877 -102.014 577.656 Q -108.480 576.435 -112.158 575.908 Q -115.836 575.380 -118.600 576.086 Q -120.211 579.491 -92.649 591.078 Q -92.747 591.622 -99.335 589.934 Q -105.922 588.247 -110.784 587.011 Q -115.646 585.775 -119.756 585.773 Q -120.935 586.421 -118.388 588.594 Q -115.842 590.766 -113.210 592.465 Q -110.578 594.163 -106.667 597.559 Q -102.756 600.955 -100.606 603.554 Q -98.456 606.152 -97.583 607.609 Q -96.710 609.066 -96.407 610.391 Q -96.104 611.715 -96.573 612.601 Q -97.041 613.486 -97.237 613.731 Q -97.434 613.976 -99.313 614.177 Q -101.191 614.377 -102.498 614.251 Q -103.805 614.126 -104.240 613.874 Q -104.676 613.622 -106.150 612.426 Q -107.624 611.230 -108.439 610.392 Q -109.255 609.553 -110.658 609.125 Q -110.764 610.587 -110.721 610.133 Q -110.541 611.028 -110.418 610.891 Q -110.529 611.130 -108.803 611.859 Q -109.308 610.233 -109.366 610.594 Q -110.102 609.410 -117.682 603.574 Q -125.263 597.737 -133.899 591.078 Q -134.360 591.826 -131.293 595.167 Q -128.225 598.508 -126.011 601.562 Q -123.797 604.616 -121.050 608.301 Q -118.304 611.985 -115.933 614.812 Q -113.562 617.639 -111.128 620.959 Q -108.695 624.279 -106.957 628.324 Q -105.219 632.369 -105.020 635.667 Q -104.822 638.965 -105.156 641.143 Q -105.490 643.320 -105.529 645.474 Q -105.567 647.628 -104.866 649.826 Q -104.165 652.024 -101.361 655.736 Q -98.556 659.448 -96.401 662.807 Q -94.246 666.167 -92.016 671.777 Q -89.786 677.388 -88.419 680.599 Q -87.053 683.809 -86.625 686.039 Q -86.198 688.269 -85.621 692.923 Q -85.044 697.576 -84.451 703.528 Q -83.859 709.481 -83.215 712.805 Q -82.570 716.130 -82.453 717.757 Q -82.336 719.384 -81.398 722.924 Q -80.460 726.465 -79.561 728.503 Q -78.662 730.541 -78.037 732.574 Q -77.412 734.608 -76.403 737.844 Q -75.394 741.081 -74.826 743.032 Q -74.259 744.984 -73.664 746.300 Q -73.070 747.617 -72.758 748.175 Q -72.445 748.733 -72.267 749.059 Q -72.088 749.384 -71.594 750.140 Q -71.100 750.896 -70.579 751.885 Q -70.059 752.874 -70.015 753.122 Q -69.971 753.369 -69.519 754.647 Q -69.068 755.926 -68.705 756.541 Q -68.343 757.156 -68.168 757.456 Q -67.992 757.756 -67.629 758.242 Q -67.266 758.728 -67.102 758.920 Q -66.937 759.112 -66.985 759.064 Q -67.033 759.016 -67.046 759.035 Q -67.058 759.055 -66.647 759.016 Q -66.413 758.508 -66.235 758.029 Q -66.057 757.551 -65.692 756.206 Q -65.327 754.862 -65.116 753.985 Q -64.905 753.108 -64.459 751.853 Q -64.013 750.598 -62.806 744.774 Q -61.600 738.951 -61.339 731.940 Q -61.079 724.928 -60.971 719.082 Q -60.862 713.236 -60.272 709.507 Q -59.682 705.777 -58.964 702.904 Q -58.245 700.031 -58.062 694.782 Q -57.880 689.533 -57.898 685.826 Q -57.916 682.120 -54.625 676.941 Q -51.334 671.761 -49.306 669.688 Q -47.279 667.615 -45.521 663.126 Q -43.762 658.636 -42.416 655.343 Q -41.069 652.050 -38.461 648.741 Q -35.854 645.433 -34.079 642.697 Q -32.304 639.960 -31.493 638.167 Q -30.681 636.374 -30.195 634.456 Q -29.709 632.537 -30.943 630.265 Q -32.176 627.993 -35.272 625.966 Q -38.367 623.939 -42.189 623.005 Q -46.010 622.072 -48.336 622.032 Q -50.662 621.993 -52.027 621.985 Q -53.393 621.977 -54.665 621.984 Q -55.938 621.990 -57.652 622.670 Q -59.367 623.349 -61.113 624.582 Q -62.860 625.816 -63.417 629.683 Q -63.974 633.550 -64.060 637.102 Q -64.147 640.653 -61.728 648.626 Q -59.310 656.600 -56.444 664.109 Q -53.577 671.619 -51.893 677.039 Q -50.209 682.459 -48.931 687.036 Q -47.653 691.613 -46.739 694.846 Q -45.824 698.078 -45.099 700.180 Q -44.374 702.281 -43.836 703.900 Q -43.298 705.519 -42.325 706.849 Q -41.353 708.178 -40.448 708.732 Q -39.543 709.286 -39.143 709.363 Q -38.743 709.441 -37.557 709.414 Q -36.371 709.387 -34.732 707.641 Q -33.092 705.896 -30.909 703.494 Q -28.726 701.092 -26.232 697.078 Q -23.739 693.063 -22.189 689.054 Q -20.638 685.044 -19.965 680.565 Q -19.292 676.085 -19.708 672.490 Q -20.125 668.894 -20.675 666.892 Q -21.226 664.891 -22.510 662.591 Q -23.794 660.291 -25.598 658.270 Q -27.403 656.249 -29.521 654.493 Q -31.638 652.737 -34.357 651.289 Q -37.077 649.840 -39.758 648.843 Q -42.440 647.847 -46.639 647.568 Q -50.839 647.289 -55.005 647.164 Q -59.171 647.038 -64.209 648.204 Q -69.248 649.370 -71.748 650.406 Q -74.247 651.443 -75.335 651.904 Q -76.423 652.364 -76.857 652.920 Q -77.290 653.476 -77.222 654.022 Q -77.154 654.567 -76.785 654.960 Q -76.416 655.352 -75.894 655.546 Q -75.373 655.740 -74.877 655.903 Q -74.382 656.065 -74.066 656.116 Q -73.750 656.168 -73.564 656.167 Q -73.379 656.167 -70.646 656.496 Q -67.914 656.824 -63.381 656.088 Q -58.849 655.352 -55.526 654.145 Q -52.203 652.937 -50.116 651.672 Q -48.029 650.408 -46.692 648.667 Q -45.354 646.927 -45.275 645.286 Q -45.196 643.644 -45.899 642.427 Q -46.601 641.210 -49.089 640.362 Q -51.577 639.514 -53.571 639.486 Q -55.564 639.457 -57.749 640.461 Q -59.934 641.465 -61.250 642.733 Q -62.565 644.001 -63.738 645.698 Q -64.910 647.395 -65.405 650.058 Q -65.900 652.720 -65.576 654.525 Q -65.253 656.330 -65.038 657.210 Q -64.823 658.090 -62.544 660.720 Q -60.264 663.350 -53.533 666.258 Q -46.801 669.166 -40.927 671.200 Q -35.053 673.234 -21.761 674.688 Q -21.629 673.871 -26.104 672.463 Q -30.579 671.054 -38.253 670.230 Q -45.927 669.406 -50.500 669.398 Q -55.072 669.390 -57.674 669.390 Q -60.275 669.390 -62.709 669.428 Q -65.143 669.466 -68.049 670.226 Q -70.955 670.985 -73.515 672.859 Q -72.976 674.092 -67.586 674.565 Q -62.195 675.039 -55.949 675.043 Q -49.702 675.047 -46.352 674.856 Q -43.002 674.664 -38.034 673.987 Q -33.066 673.310 -30.145 672.606 Q -27.224 671.901 -25.463 671.279 Q -23.702 670.657 -22.360 669.977 Q -21.017 669.296 -20.365 668.388 Q -19.712 667.480 -19.858 666.521 Q -20.003 665.562 -24.276 664.287 Q -28.548 663.013 -34.209 662.327 Q -39.869 661.641 -50.067 661.570 Q -60.266 661.499 -66.862 661.605 Q -73.459 661.711 -79.726 662.312 Q -78.862 662.177 -73.287 662.370 Q -67.713 662.563 -60.327 661.935 Q -52.941 661.307 -47.882 660.089 Q -42.823 658.872 -40.170 657.977 Q -37.518 657.083 -36.026 656.288 Q -34.535 655.494 -33.586 654.747 Q -32.638 654.001 -32.088 652.706 Q -31.537 651.412 -31.514 650.027 Q -31.490 648.642 -32.835 647.388 Q -34.181 646.135 -37.955 644.192 Q -41.730 642.250 -52.110 641.704 Q -62.491 641.159 -69.862 641.198 Q -77.234 641.238 -82.707 641.250 Q -82.056 641.585 -73.911 640.799 Q -65.766 640.012 -59.082 638.958 Q -52.397 637.904 -45.279 636.411 Q -38.160 634.917 -34.211 633.844 Q -30.263 632.771 -28.016 631.746 Q -25.769 630.720 -24.695 629.849 Q -23.621 628.978 -22.849 627.291 Q -22.077 625.603 -24.691 623.733 Q -27.305 621.863 -32.568 620.733 Q -37.830 619.602 -41.664 619.224 Q -45.498 618.846 -47.695 618.541 Q -49.893 618.236 -61.673 617.957 Q -73.453 617.677 -90.221 618.891 Q -89.532 618.771 -81.887 618.849 Q -74.243 618.926 -64.021 618.017 Q -53.799 617.108 -45.330 615.677 Q -36.861 614.247 -32.431 613.203 Q -28.001 612.158 -25.110 611.049 Q -22.218 609.939 -20.756 608.818 Q -19.293 607.697 -19.127 605.299 Q -18.961 602.902 -25.954 601.498 Q -32.947 600.095 -46.897 599.338 Q -60.846 598.582 -80.268 600.672 Q -79.619 601.136 -71.004 601.441 Q -62.388 601.746 -52.913 600.750 Q -43.438 599.753 -36.599 598.581 Q -29.760 597.409 -26.412 596.458 Q -23.063 595.507 -21.357 594.788 Q -19.651 594.070 -18.388 592.456 Q -17.125 590.842 -19.712 589.970 Q -22.299 589.098 -26.991 588.571 Q -31.684 588.045 -40.164 589.265 Q -48.644 590.486 -54.679 591.833 Q -60.714 593.179 -65.553 595.562 Q -65.205 596.315 -54.502 596.263 Q -43.800 596.211 -32.960 594.855 Q -22.120 593.499 -16.371 592.716 Q -10.622 591.933 -7.789 591.185 Q -4.956 590.438 -3.517 589.865 Q -2.078 589.291 -1.438 588.508 Q -0.798 587.725 -1.369 586.500 Q -1.941 585.274 -7.554 584.817 Q -13.167 584.360 -21.420 585.071 Q -29.672 585.781 -34.702 586.508 Q -39.732 587.236 -52.442 589.594 Q -52.341 589.678 -44.047 589.574 Q -35.753 589.470 -26.643 587.804 Q -17.533 586.137 -12.715 584.993 Q -7.897 583.849 -5.641 583.081 Q -3.385 582.314 -2.143 581.471 Q -0.900 580.629 -0.468 579.233 Q -0.035 577.838 -0.413 576.946 Q -0.791 576.054 -4.913 575.222 Q -9.034 574.390 -13.567 573.896 Q -18.101 573.402 -26.194 572.940 Q -34.288 572.477 -58.153 572.641 Q -57.251 572.850 -48.860 572.231 Q -40.469 571.611 -34.453 570.684 Q -28.438 569.757 -25.268 568.747 Q -22.097 567.737 -20.487 567.125 Q -18.877 566.514 -17.905 565.609 Q -16.933 564.704 -16.796 563.172 Q -16.658 561.640 -21.369 560.686 Q -26.081 559.732 -31.166 559.346 Q -36.251 558.961 -40.255 558.924 Q -44.259 558.887 -57.424 557.742 Q -57.063 557.577 -54.345 557.539 Q -51.627 557.502 -45.468 557.266 Q -39.308 557.031 -35.744 557.138 Q -32.180 557.244 -30.140 555.258 Q -29.943 554.085 -35.634 552.524 Q -41.326 550.962 -44.449 549.891 Q -47.572 548.819 -49.786 547.417 Q -52.000 546.014 -54.297 540.453 "></path>
    <path id="STROKE_15b9cffc-1c89-4a1f-bec0-9caad72a07ee" opacity="1.000" fill="none" stroke="#6d7881" stroke-width="31.000" stroke-opacity="1.000" stroke-linecap="round" stroke-linejoin="round" d="M -107.194 545.079 L -107.194 446.338 L -15.443 446.338 L -15.443 545.079 Z"></path>
    <path id="STROKE_162442d6-5904-4238-9144-15742de43225" opacity="1.000" fill="none" stroke="#85929c" stroke-width="30.000" stroke-opacity="1.000" stroke-linecap="round" stroke-linejoin="round" d="M -88.877 512.000 L -80.000 512.000 L -80.000 528.000 L -64.000 528.000 L -64.000 528.000 "></path>
    <path id="STROKE_afafcde6-2782-4d89-a367-7af61ae73ac3" opacity="1.000" fill="none" stroke="#6d7881" stroke-width="30.000" stroke-opacity="1.000" stroke-linecap="round" stroke-linejoin="round" d="M -86.626 496.000 L -80.000 496.000 L -80.000 480.000 L -64.000 480.000 L -64.000 496.000 L -80.000 496.000 L -80.000 512.000 L -80.000 512.000 "></path>
    <path id="STROKE_0f973911-a728-4170-a0cc-b769cf8abff3" opacity="1.000" fill="none" stroke="#6d7881" stroke-width="30.000" stroke-opacity="1.000" stroke-linecap="round" stroke-linejoin="round" d="M -86.938 505.094 Q -85.939 504.604 -89.523 506.219 Q -89.087 506.894 -70.097 508.711 Q -71.519 506.741 -71.160 507.445 Q -71.882 507.059 -75.622 506.464 Q -79.363 505.870 -81.474 505.876 Q -83.585 505.883 -84.655 506.136 Q -85.724 506.390 -86.544 507.008 Q -87.365 507.627 -87.719 508.394 Q -88.072 509.161 -88.085 509.193 Q -88.097 509.226 -88.179 511.428 Q -88.261 513.631 -88.318 514.515 Q -88.375 515.400 -88.194 516.357 Q -88.013 517.313 -86.329 517.690 Q -84.644 518.067 -82.851 518.177 Q -81.059 518.286 -80.132 518.169 Q -79.204 518.052 -78.952 517.458 Q -78.701 516.865 -79.102 516.228 Q -79.504 515.592 -80.206 515.215 Q -80.909 514.838 -82.627 514.213 Q -84.345 513.588 -85.440 513.360 Q -86.534 513.132 -87.082 513.107 Q -87.630 513.083 -88.424 512.963 Q -89.217 512.843 -90.276 512.859 Q -91.334 512.876 -92.296 513.000 Q -93.258 513.124 -93.505 513.795 Q -93.752 514.466 -93.980 514.979 Q -94.207 515.492 -89.829 518.045 Q -85.450 520.597 -79.866 522.148 Q -74.282 523.699 -71.341 524.103 Q -68.400 524.507 -67.232 524.596 Q -66.065 524.686 -63.083 524.406 Q -61.719 523.158 -66.488 520.282 Q -71.257 517.405 -74.542 516.413 Q -77.826 515.421 -79.768 515.122 Q -81.709 514.823 -82.767 515.165 Q -83.824 515.507 -84.233 516.491 Q -84.641 517.476 -84.610 518.087 Q -84.579 518.697 -83.549 519.399 Q -82.518 520.102 -80.294 520.819 Q -78.069 521.536 -74.882 521.903 Q -71.695 522.269 -70.016 522.255 Q -68.336 522.240 -67.163 522.150 Q -65.989 522.059 -66.022 519.891 Q -67.645 519.266 -67.283 519.461 Q -68.239 519.369 -72.805 519.258 Q -77.371 519.147 -80.696 520.048 Q -84.021 520.949 -85.595 521.730 Q -87.169 522.512 -88.002 523.596 Q -88.836 524.680 -88.629 525.375 Q -88.422 526.069 -88.275 526.365 Q -88.127 526.660 -84.572 527.293 Q -81.016 527.925 -76.638 527.869 Q -72.260 527.812 -70.488 527.913 Q -68.717 528.015 -67.404 527.776 Q -66.091 527.536 -65.417 527.377 Q -64.743 527.217 -64.573 525.930 Q -65.711 524.585 -82.874 525.328 Q -83.826 526.573 -78.600 527.523 Q -73.375 528.472 -67.418 528.693 Q -61.461 528.915 -57.187 528.563 Q -52.912 528.211 -50.191 526.789 Q -50.722 525.767 -57.105 524.988 Q -63.488 524.210 -67.142 524.155 Q -70.796 524.100 -73.073 524.425 Q -75.349 524.750 -76.441 525.354 Q -77.533 525.959 -77.803 526.626 Q -78.073 527.294 -77.409 527.985 Q -76.745 528.676 -71.519 528.727 Q -66.293 528.779 -63.400 528.853 Q -60.508 528.928 -58.453 528.625 Q -56.398 528.322 -55.319 527.610 Q -54.240 526.899 -54.220 525.426 Q -54.199 523.952 -60.006 523.546 Q -65.813 523.140 -69.042 523.084 Q -72.270 523.028 -73.777 523.329 Q -75.284 523.630 -75.830 523.962 Q -76.377 524.294 -76.647 524.692 Q -76.916 525.090 -76.576 525.382 Q -76.235 525.674 -75.527 526.162 Q -74.820 526.650 -69.671 528.094 Q -64.523 529.539 -57.979 530.113 Q -51.435 530.688 -47.802 530.588 Q -44.170 530.487 -42.505 530.184 Q -40.839 529.881 -40.192 529.310 Q -39.544 528.738 -39.699 527.690 Q -39.854 526.641 -40.255 526.547 Q -40.656 526.452 -41.562 525.771 Q -42.468 525.089 -47.171 523.086 Q -51.874 521.082 -61.811 519.422 Q -62.013 519.776 -61.926 519.727 Q -61.839 519.678 -61.446 520.375 Q -61.053 521.072 -58.257 522.105 Q -55.461 523.139 -51.320 523.852 Q -47.180 524.566 -44.902 524.510 Q -42.624 524.453 -41.507 524.577 Q -40.391 524.700 -39.917 523.386 Q -39.443 522.072 -41.547 520.261 Q -43.651 518.451 -59.592 515.969 Q -58.888 515.981 -53.242 515.985 Q -47.596 515.989 -44.481 516.077 Q -41.366 516.164 -39.791 515.989 Q -38.217 515.814 -37.591 515.492 Q -36.966 515.170 -36.273 514.665 Q -35.581 514.159 -35.688 514.245 Q -35.796 514.332 -35.476 513.828 Q -35.157 513.325 -35.524 511.900 Q -35.892 510.475 -42.734 508.579 Q -49.576 506.682 -66.282 505.359 Q -66.065 505.820 -58.511 506.141 Q -50.958 506.462 -46.764 506.475 Q -42.571 506.488 -40.776 506.447 Q -38.982 506.406 -37.272 506.069 Q -35.562 505.732 -34.940 503.553 Q -34.317 501.374 -45.235 498.501 Q -56.153 495.629 -67.470 492.391 Q -67.364 492.144 -61.622 492.298 Q -55.881 492.452 -50.178 492.302 Q -44.475 492.152 -41.454 492.256 Q -38.432 492.360 -36.334 491.906 Q -34.236 491.452 -33.610 489.570 Q -33.858 488.987 -40.624 487.609 Q -47.390 486.231 -62.781 484.000 Q -62.878 483.826 -55.863 483.987 Q -48.848 484.147 -43.942 484.010 Q -39.036 483.873 -36.604 483.468 Q -34.172 483.064 -32.626 482.599 Q -31.079 482.135 -30.768 481.311 Q -30.456 480.488 -30.701 480.016 Q -30.945 479.545 -31.248 479.493 Q -31.550 479.442 -32.056 478.891 Q -32.562 478.340 -57.486 471.891 L -57.455 471.820 Q -56.187 471.648 -49.848 471.737 Q -43.509 471.826 -39.827 471.748 Q -36.146 471.670 -34.206 471.317 Q -32.267 470.965 -31.356 470.562 Q -30.446 470.159 -30.772 469.435 Q -31.097 468.711 -37.265 467.963 Q -43.433 467.214 -53.380 465.750 Q -53.229 465.643 -46.221 465.677 Q -39.213 465.712 -34.426 465.886 Q -29.638 466.061 -26.492 464.781 Q -26.363 464.461 -28.999 464.328 Q -31.635 464.195 -43.687 463.931 Q -55.739 463.666 -68.346 463.523 Q -68.364 464.003 -68.455 463.790 Q -68.545 463.578 -68.195 464.588 Q -67.846 465.598 -62.176 465.422 Q -63.940 464.802 -87.543 463.750 Q -87.903 464.154 -78.872 465.344 Q -78.872 465.383 -78.872 465.422 Q -78.149 465.388 -79.485 465.478 Q -80.820 465.568 -82.518 465.612 Q -84.217 465.657 -85.520 465.642 Q -86.823 465.626 -87.390 465.865 Q -87.957 466.104 -88.579 466.496 Q -89.202 466.887 -89.048 467.457 Q -88.894 468.028 -88.565 468.369 Q -88.237 468.710 -85.567 470.281 Q -82.897 471.852 -81.502 472.802 Q -80.106 473.752 -79.454 474.456 Q -78.802 475.159 -78.806 475.534 Q -78.811 475.909 -78.875 476.258 Q -78.940 476.606 -79.271 476.879 Q -79.602 477.153 -79.955 477.293 Q -80.309 477.432 -80.691 477.595 Q -81.073 477.757 -81.608 477.961 Q -82.142 478.165 -82.243 478.224 Q -82.343 478.283 -86.480 479.453 Q -85.641 480.207 -81.644 481.281 Q -83.882 481.275 -85.353 481.113 Q -86.824 480.951 -87.751 481.875 "></path>
    <path id="STROKE_ec0c7e91-8628-43b7-8e1a-3370d586536a" opacity="1.000" fill="none" stroke="#85929c" stroke-width="31.000" stroke-opacity="1.000" stroke-linecap="round" stroke-linejoin="round" d="M -130.564 611.418 L -130.564 478.082 L 9.063 478.081 L 9.063 611.418 Z"></path>
    <path id="STROKE_fb61d64f-87c1-441e-b7c7-95fd348f245d" opacity="1.000" fill="none" stroke="#6d7881" stroke-width="30.000" stroke-opacity="1.000" stroke-linecap="round" stroke-linejoin="round" d="M -89.273 542.781 Q -89.328 542.968 -89.246 544.018 Q -89.165 545.069 -88.862 545.414 Q -88.558 545.760 -83.277 545.966 Q -77.997 546.172 -73.651 546.113 Q -69.306 546.054 -65.794 546.030 Q -62.283 546.005 -58.013 545.871 Q -53.743 545.737 -50.779 545.592 Q -47.816 545.448 -46.293 543.383 Q -46.843 542.416 -53.424 541.487 Q -60.006 540.557 -71.577 538.531 L -71.577 538.500 Q -70.963 538.431 -65.073 538.066 Q -59.184 537.701 -55.519 536.789 Q -51.854 535.878 -50.022 535.199 Q -48.191 534.520 -47.481 533.905 Q -46.772 533.290 -46.495 532.921 Q -46.219 532.552 -46.378 530.512 Q -46.536 528.473 -67.616 521.953 "></path>
    <path id="STROKE_05590c28-8933-4060-b399-27d3bacfcc3d" opacity="1.000" fill="none" stroke="#6d7881" stroke-width="30.000" stroke-opacity="1.000" stroke-linecap="round" stroke-linejoin="round" d="M -78.142 514.047 Q -78.816 514.559 -79.007 514.771 Q -79.198 514.983 -79.174 514.953 L -79.205 514.984 Q -77.768 514.744 -68.457 514.526 Q -59.146 514.308 -52.535 514.261 Q -45.924 514.214 -40.697 513.125 Q -40.852 513.088 -40.781 513.147 Q -40.710 513.207 -40.367 512.867 Q -40.024 512.527 -45.068 510.758 Q -50.111 508.988 -53.420 508.062 Q -56.728 507.137 -58.800 505.062 Q -58.943 504.857 -55.411 504.634 Q -51.879 504.411 -47.544 505.828 "></path>
    <path id="STROKE_8bdfc36b-d34e-408d-b66f-d4c46cafe054" opacity="1.000" fill="none" stroke="#85929c" stroke-width="30.000" stroke-opacity="1.000" stroke-linecap="round" stroke-linejoin="round" d="M -98.923 537.281 Q -98.779 537.166 -98.833 538.439 Q -98.887 539.712 -93.254 540.472 Q -87.621 541.231 -80.111 541.260 Q -72.601 541.289 -68.597 541.305 Q -64.592 541.322 -62.502 541.294 Q -60.412 541.267 -59.427 541.069 Q -58.442 540.872 -58.174 539.336 Q -58.160 538.587 -63.922 537.625 Q -69.683 536.664 -84.291 535.609 Q -84.318 535.452 -77.201 535.630 Q -70.084 535.809 -64.773 535.269 Q -59.463 534.729 -56.191 534.133 Q -52.918 533.537 -50.587 531.242 Q -50.437 529.846 -91.649 528.883 Q -91.649 528.812 -91.649 528.719 Q -91.310 528.443 -87.731 527.865 Q -84.152 527.287 -80.914 524.102 Q -81.147 524.193 -80.979 523.850 Q -80.812 523.507 -85.014 523.142 Q -89.215 522.776 -93.638 523.216 Q -98.060 523.656 -102.050 525.594 Q -102.050 526.044 -102.050 526.031 Q -103.240 526.718 -82.645 526.656 Q -82.519 526.505 -88.936 526.570 Q -95.354 526.635 -99.212 526.665 Q -103.070 526.695 -104.530 526.419 Q -105.990 526.144 -106.764 525.843 Q -107.538 525.542 -107.600 525.194 Q -107.661 524.845 -107.456 524.398 Q -107.251 523.950 -106.726 523.584 Q -106.201 523.217 -105.444 522.555 Q -104.687 521.893 -104.235 521.432 Q -103.782 520.971 -102.749 520.353 Q -101.716 519.735 -100.740 518.593 Q -99.764 517.452 -100.334 516.291 Q -100.904 515.130 -102.542 514.438 Q -104.179 513.746 -105.505 513.139 Q -106.831 512.532 -107.234 511.979 Q -107.637 511.425 -107.690 511.244 Q -107.742 511.062 -107.735 510.793 Q -107.728 510.524 -107.336 509.647 Q -106.944 508.770 -106.956 508.784 Q -106.968 508.798 -106.950 508.737 Q -106.932 508.675 -106.815 508.352 Q -106.698 508.029 -106.529 507.703 Q -106.359 507.378 -106.196 505.936 Q -106.033 504.493 -106.069 503.167 Q -106.106 501.841 -106.104 501.271 Q -106.103 500.702 -106.112 500.410 Q -106.122 500.119 -106.110 499.895 Q -106.098 499.670 -106.078 500.120 Q -106.057 500.569 -105.520 496.203 L -105.552 496.203 Q -105.552 496.172 -105.552 495.938 Q -105.994 494.820 -98.673 497.891 Q -98.164 498.395 -100.272 498.516 Q -102.380 498.637 -103.746 498.716 Q -105.111 498.795 -105.885 498.574 Q -106.659 498.353 -107.163 498.165 Q -107.666 497.978 -108.543 497.446 Q -109.421 496.914 -110.179 496.109 Q -111.174 496.258 -106.730 495.715 Q -102.286 495.172 -96.863 495.436 Q -91.439 495.700 -88.387 495.991 Q -85.334 496.282 -80.927 497.159 Q -76.519 498.035 -67.959 498.887 Q -59.398 499.738 -54.319 499.823 Q -49.239 499.907 -45.689 499.859 Q -46.098 500.088 -57.402 499.678 Q -68.706 499.268 -86.146 501.516 Q -86.146 501.547 -86.115 501.672 Q -86.458 501.865 -75.173 501.834 Q -63.887 501.804 -52.159 501.763 Q -40.431 501.723 -32.015 501.832 Q -23.599 501.941 -16.425 502.375 Q -16.375 502.266 -20.843 501.990 Q -25.311 501.714 -32.580 501.505 Q -39.849 501.295 -60.467 499.781 Q -60.715 500.979 -19.009 501.109 Q -20.545 501.282 -20.200 501.276 Q -19.856 501.271 -32.422 501.477 Q -32.256 500.768 -27.087 499.501 Q -21.918 498.233 -18.708 496.863 Q -15.499 495.492 -14.151 494.839 Q -12.804 494.186 -12.454 493.791 Q -12.103 493.396 -11.570 492.814 Q -11.037 492.232 -11.309 491.911 Q -11.581 491.589 -12.161 491.190 Q -12.741 490.791 -12.956 490.834 Q -13.170 490.877 -13.711 490.744 Q -14.253 490.611 -18.947 490.234 Q -17.205 490.234 -17.623 490.234 Q -17.208 489.996 -8.025 490.766 Q -8.270 491.140 -14.306 493.036 Q -20.341 494.931 -25.064 496.252 Q -29.786 497.573 -34.492 498.636 Q -39.198 499.699 -42.035 500.626 Q -44.873 501.553 -46.409 502.335 Q -47.945 503.117 -48.363 504.496 Q -48.781 505.876 -48.392 507.499 Q -48.003 509.122 -40.333 510.519 Q -32.663 511.917 -14.111 513.289 Q -14.968 513.813 -15.817 513.882 Q -16.666 513.950 -17.313 514.198 Q -17.960 514.445 -26.088 516.052 Q -34.215 517.659 -46.689 518.438 Q -46.820 518.875 -37.358 517.851 Q -27.897 516.827 -21.687 515.701 Q -15.477 514.575 -11.339 512.828 Q -12.006 512.560 -17.407 512.529 Q -22.807 512.497 -27.722 513.531 Q -32.638 514.565 -35.263 515.369 Q -37.888 516.172 -38.764 516.844 Q -39.641 517.516 -40.053 517.791 Q -40.466 518.066 -40.660 518.869 Q -40.853 519.671 -40.518 520.008 Q -40.183 520.344 -39.532 520.823 Q -38.882 521.301 -34.239 521.665 Q -29.596 522.030 -26.646 522.149 Q -23.696 522.269 -20.412 522.330 Q -17.127 522.390 -14.762 522.530 Q -12.396 522.670 -10.859 521.086 Q -10.355 520.257 -18.559 521.858 Q -26.763 523.460 -33.049 524.845 Q -39.335 526.229 -42.209 526.942 Q -45.083 527.654 -46.430 528.304 Q -47.777 528.953 -48.211 530.109 Q -48.179 531.542 -34.986 532.743 Q -21.792 533.944 -3.981 533.031 Q -3.716 533.394 -13.799 535.671 Q -23.882 537.949 -29.499 539.247 Q -35.115 540.544 -37.585 541.037 Q -40.055 541.530 -41.217 541.989 Q -42.380 542.447 -42.901 543.217 Q -43.422 543.986 -41.713 545.277 Q -40.005 546.569 -38.474 546.898 Q -36.943 547.228 -34.821 547.767 Q -32.698 548.306 -25.410 548.692 Q -18.122 549.078 -13.221 549.131 Q -8.320 549.184 -4.648 547.953 L -4.648 547.922 Q -5.796 547.180 -43.917 554.555 Q -42.079 555.082 -42.194 555.248 Q -42.308 555.413 -35.166 556.260 Q -28.023 557.108 -5.138 556.883 Q -4.254 557.770 -10.698 559.312 Q -17.141 560.853 -23.127 561.923 Q -29.112 562.994 -34.183 564.648 Q -36.577 565.827 -2.032 569.219 Q -1.639 569.951 -10.520 571.745 Q -19.401 573.540 -28.806 575.820 Q -29.831 576.692 -22.749 578.097 Q -15.668 579.501 -8.990 580.107 Q -2.312 580.713 3.710 580.969 Q 2.470 582.190 -28.712 583.625 Q -27.733 584.753 -27.854 584.608 Q -27.976 584.464 -26.512 584.756 Q -25.048 585.048 -23.546 585.163 Q -22.045 585.277 -10.463 586.703 Q -10.247 588.503 -30.140 589.562 Q -31.346 589.632 -1.459 589.430 Q -1.459 589.297 -1.459 589.164 Q -1.852 588.496 -16.985 587.436 Q -32.118 586.376 -43.992 586.109 Q -55.867 585.843 -65.000 586.477 Q -65.335 588.066 -57.014 588.588 Q -48.692 589.110 -43.172 589.219 Q -37.651 589.329 -33.277 588.102 Q -31.833 587.437 -40.386 587.367 Q -48.938 587.296 -62.289 587.022 Q -75.641 586.749 -95.588 588.164 L -95.630 588.266 Q -95.541 588.697 -88.061 588.920 Q -80.581 589.143 -75.358 589.107 Q -70.135 589.072 -64.875 588.137 Q -59.615 587.203 -56.327 586.103 Q -53.039 585.002 -50.666 583.701 Q -48.292 582.399 -47.259 581.550 Q -46.225 580.702 -45.263 578.566 Q -44.301 576.430 -48.445 575.137 Q -52.590 573.844 -58.799 572.942 Q -65.008 572.040 -68.909 571.713 Q -72.810 571.387 -79.558 570.927 Q -86.306 570.467 -89.545 570.177 Q -92.785 569.887 -95.123 569.751 Q -97.461 569.616 -101.320 568.492 Q -101.254 568.114 -90.809 567.924 Q -80.364 567.734 -74.059 567.310 Q -67.755 566.885 -64.056 566.309 Q -60.358 565.734 -58.303 564.942 Q -56.249 564.150 -55.530 563.679 Q -54.811 563.208 -54.196 562.957 Q -53.582 562.707 -53.641 560.336 Q -54.327 558.135 -102.811 555.094 L -102.811 555.062 Q -101.890 554.866 -95.234 555.431 Q -88.579 555.996 -73.928 556.420 Q -59.277 556.845 -45.074 557.977 Q -44.794 557.531 -45.143 558.458 Q -45.492 559.384 -53.087 560.395 Q -60.682 561.406 -82.707 561.094 Q -81.847 560.974 -78.904 561.083 Q -75.961 561.192 -74.115 561.057 Q -72.270 560.921 -71.188 559.743 Q -70.106 558.565 -70.360 558.755 Q -70.613 558.945 -70.461 558.602 Q -70.907 557.876 -76.366 557.089 Q -81.825 556.301 -85.880 554.964 Q -89.935 553.627 -91.729 552.518 Q -93.524 551.409 -94.601 550.663 Q -95.678 549.917 -96.192 549.664 Q -96.707 549.412 -97.220 549.163 Q -97.733 548.914 -97.766 548.900 Q -97.798 548.887 -97.692 548.900 Q -97.586 548.914 -98.213 548.677 Q -98.841 548.439 -100.985 546.700 Q -103.129 544.960 -105.171 543.235 Q -107.212 541.511 -108.595 538.500 Q -108.563 538.469 -108.407 538.406 Q -108.332 539.436 -108.460 539.032 Q -108.588 538.628 -108.553 542.808 Q -108.517 546.988 -108.375 549.291 Q -108.234 551.595 -108.314 553.198 Q -108.394 554.802 -109.243 557.825 Q -110.093 560.848 -110.775 563.141 Q -111.458 565.434 -111.753 567.334 Q -112.048 569.234 -111.407 571.535 Q -110.765 573.836 -109.318 575.322 Q -107.870 576.808 -106.899 577.285 Q -105.928 577.763 -104.658 577.503 Q -103.388 577.242 -102.841 575.750 Q -102.293 574.258 -101.888 572.620 Q -101.482 570.982 -103.999 557.438 Q -105.335 557.772 -105.575 563.821 Q -105.814 569.870 -105.447 573.785 Q -105.079 577.701 -104.726 579.551 Q -104.373 581.401 -103.294 584.430 Q -102.216 587.460 -101.541 588.864 Q -100.866 590.267 -100.499 591.111 Q -100.133 591.955 -99.437 591.965 Q -98.742 591.975 -97.723 591.149 Q -96.703 590.324 -96.291 588.591 Q -95.880 586.858 -95.679 584.629 Q -95.479 582.400 -97.335 579.389 Q -99.191 576.377 -100.769 574.428 Q -102.347 572.479 -107.136 570.656 Q -107.644 570.621 -106.445 571.884 Q -105.246 573.146 -104.348 574.804 Q -103.450 576.462 -103.245 577.536 Q -103.041 578.610 -102.880 579.356 Q -102.720 580.103 -102.847 581.106 Q -102.974 582.109 -103.224 582.445 Q -103.475 582.780 -103.779 583.197 Q -104.084 583.613 -104.319 583.802 Q -104.553 583.992 -105.046 584.266 Q -105.539 584.539 -106.510 584.907 Q -107.482 585.275 -107.024 585.237 Q -106.566 585.200 -116.807 587.766 Q -116.895 587.467 -109.658 588.234 Q -110.430 589.370 -110.220 588.992 Q -110.979 589.710 -110.919 589.633 Q -110.001 588.804 -114.952 592.938 Q -115.407 593.263 -111.909 592.484 "></path>
    <path id="STROKE_b3d0a3c4-9b92-4ffe-b102-0270137772c0" opacity="1.000" fill="none" stroke="#6d7881" stroke-width="31.000" stroke-opacity="1.000" stroke-linecap="round" stroke-linejoin="round" d="M -100.830 595.248 L -26.551 595.248 L -26.551 669.527 L -100.830 669.527 Z"></path>
    <path id="STROKE_f3b4ea34-705d-425f-b93e-aacf48280e8e" opacity="1.000" fill="none" stroke="#6d7881" stroke-width="30.000" stroke-opacity="1.000" stroke-linecap="round" stroke-linejoin="round" d="M -80.000 615.671 L -80.000 640.000 L -80.000 656.000 "></path>
    <path id="STROKE_17be60f8-1ab4-447c-b867-abe0da79016f" opacity="1.000" fill="none" stroke="#6d7881" stroke-width="30.000" stroke-opacity="1.000" stroke-linecap="round" stroke-linejoin="round" d="M -64.000 612.583 L -64.000 656.000 L -59.362 656.000 "></path>
    <path id="STROKE_e46171ee-806f-4c36-85e4-950ac3a76b4a" opacity="1.000" fill="none" stroke="#6d7881" stroke-width="30.000" stroke-opacity="1.000" stroke-linecap="round" stroke-linejoin="round" d="M -48.000 608.000 L -48.000 608.000 L -48.000 640.000 Q -48.000 649.069 -48.000 650.068 "></path>
    <path id="STROKE_9f69d492-c37b-42a0-b32c-1f0a80a4d0db" opacity="1.000" fill="none" stroke="#85929c" stroke-width="31.000" stroke-opacity="1.000" stroke-linecap="round" stroke-linejoin="round" d="M -117.191 530.043 L -13.549 530.043 L -13.549 611.568 L -117.190 611.568 Z"></path>
    <path id="STROKE_05f991d0-acc0-4723-a025-4b5e3dd4b75c" opacity="1.000" fill="none" stroke="#85929c" stroke-width="30.000" stroke-opacity="1.000" stroke-linecap="round" stroke-linejoin="round" d="M -48.000 576.000 L -48.000 592.000 L -96.000 592.000 L -96.000 592.000 "></path>
    <path id="STROKE_55bb566d-99f0-4c3c-849d-ce47fc19e68d" opacity="1.000" fill="none" stroke="#85929c" stroke-width="30.000" stroke-opacity="1.000" stroke-linecap="round" stroke-linejoin="round" d="M -96.000 585.480 L -96.000 576.000 L -80.000 576.000 L -80.000 592.000 L -32.000 592.000 L -27.719 592.000 "></path>
    <path id="STROKE_055e0d79-1ccd-49d1-b7ad-b3422b38a4a3" opacity="1.000" fill="none" stroke="#85929c" stroke-width="30.000" stroke-opacity="1.000" stroke-linecap="round" stroke-linejoin="round" d="M -48.000 582.858 L -48.000 576.000 L -64.000 576.000 L -64.000 576.000 "></path>
    <path id="STROKE_ee4a4cad-a9e6-4802-90a5-1087d25013e8" opacity="1.000" fill="none" stroke="#85929c" stroke-width="30.000" stroke-opacity="1.000" stroke-linecap="round" stroke-linejoin="round" d="M -28.874 576.000 L -28.652 576.000 L -32.000 576.000 "></path>
  </g>
</svg>