<?xml version="1.0" encoding="UTF-8" standalone="yes"?>
<svg xmlns="http://www.w3.org/2000/svg" xmlns:xlink="http://www.w3.org/1999/xlink" width="272.808pt" height="775.331pt" version="1.1" viewBox="248.941 123.863 272.808 775.331">
  <!--
	Exported with Concepts: Smarter Sketching
	Version: 1944 on iOS 16.4
	https://concepts.app/
	-->
  <title>B60312EC-68C3-427F-A387-D41719E21815</title>
  <desc>Drawing exported from Concepts: Smarter Sketching</desc>
  <defs></defs>
  <g id="Stift" opacity="1.000">
    <path id="STROKE_86d7e13f-05ce-4e16-9239-4006d1f70d17" opacity="1.000" fill="none" stroke="#a2afb8" stroke-width="31.000" stroke-opacity="1.000" stroke-linecap="round" stroke-linejoin="round" d="M 379.439 875.462 L 272.672 401.867 L 498.024 404.687 Z"></path>
    <path id="STROKE_ba8753cd-418f-4459-8ff1-d0e6555ceb40" opacity="1.000" fill="none" stroke="#a2afb8" stroke-width="31.000" stroke-opacity="1.000" stroke-linecap="round" stroke-linejoin="round" d="M 317.109 386.126 L 318.525 147.596 L 452.898 148.394 L 451.482 386.924 Z"></path>
    <path id="STROKE_6686a8df-96b7-41cd-9769-dbf4eb0ae3e1" opacity="1.000" fill="none" stroke="#a2afb8" stroke-width="31.000" stroke-opacity="1.000" stroke-linecap="round" stroke-linejoin="round" d="M 318.525 147.596 L 272.672 401.867 "></path>
    <path id="STROKE_3e41c009-6f62-4690-9471-5cdf48651a7b" opacity="1.000" fill="none" stroke="#a2afb8" stroke-width="31.000" stroke-opacity="1.000" stroke-linecap="round" stroke-linejoin="round" d="M 452.899 148.393 L 498.024 404.687 "></path>
    <path id="STROKE_3c3a42f4-5d3f-4000-b3ca-e0ddb682ba08" opacity="1.000" fill="none" stroke="#a2afb8" stroke-width="30.000" stroke-opacity="1.000" stroke-linecap="round" stroke-linejoin="round" d="M 342.102 359.045 Q 343.126 359.003 360.378 360.777 Q 377.629 362.552 388.349 363.762 Q 399.068 364.972 407.414 366.429 Q 408.455 366.594 396.098 366.100 Q 383.740 365.606 347.844 359.789 Q 348.882 359.807 353.868 360.774 Q 358.853 361.742 364.861 362.640 Q 370.869 363.538 393.924 365.130 Q 393.990 364.470 378.168 361.582 Q 362.346 358.693 353.948 357.247 Q 345.549 355.800 334.814 353.570 Q 324.078 351.340 314.147 350.245 Q 314.164 350.754 318.040 352.266 L 318.040 352.302 Q 316.441 352.302 316.648 352.302 Q 315.440 352.482 311.774 352.360 Q 308.107 352.238 305.601 352.475 Q 303.094 352.712 301.697 353.667 Q 300.299 354.621 300.191 356.812 Q 300.084 359.002 300.290 360.378 Q 300.497 361.754 301.350 363.343 Q 302.203 364.932 303.602 366.936 Q 305.001 368.939 306.309 370.664 Q 307.616 372.389 308.091 373.558 Q 308.567 374.727 308.560 375.367 Q 308.553 376.006 308.249 376.461 Q 307.944 376.915 307.795 376.865 Q 307.646 376.814 307.333 376.886 Q 307.021 376.958 306.378 376.945 Q 305.735 376.931 305.254 377.035 Q 304.774 377.138 296.801 374.791 Q 296.024 374.807 297.119 379.183 Q 298.214 383.559 298.229 388.192 Q 298.245 392.826 297.992 395.505 Q 297.739 398.185 297.756 399.239 Q 297.774 400.292 297.376 401.995 Q 296.978 403.698 296.779 404.513 Q 296.579 405.327 296.357 405.561 Q 296.136 405.796 295.913 407.183 Q 295.691 408.570 296.062 410.589 Q 296.434 412.608 296.699 414.476 Q 296.965 416.343 296.991 417.454 Q 297.018 418.565 297.196 419.442 Q 297.374 420.318 297.573 421.191 Q 297.773 422.065 297.715 421.918 Q 297.657 421.772 298.397 425.871 Q 299.137 429.970 299.898 432.326 Q 300.660 434.682 301.777 439.287 Q 302.895 443.892 303.415 446.274 Q 303.935 448.655 305.073 453.380 Q 306.211 458.105 307.035 463.300 Q 307.859 468.494 308.919 471.393 Q 309.980 474.292 310.703 478.873 Q 311.427 483.453 312.346 487.250 Q 313.266 491.047 314.101 493.247 Q 314.936 495.446 315.794 500.626 Q 316.653 505.806 316.953 510.222 Q 317.253 514.637 317.480 518.443 Q 317.707 522.249 317.870 524.734 Q 318.032 527.220 318.100 528.918 Q 318.167 530.616 318.636 533.437 Q 319.104 536.258 319.315 537.926 Q 319.525 539.593 321.032 548.688 Q 322.539 557.784 325.134 567.228 Q 327.730 576.672 329.157 582.692 Q 330.584 588.713 331.302 592.879 Q 332.020 597.046 332.958 600.551 Q 333.896 604.057 334.768 608.503 Q 335.641 612.949 336.257 615.378 Q 336.873 617.808 336.967 618.353 Q 337.061 618.898 339.761 630.307 Q 342.461 641.715 343.799 648.072 Q 345.137 654.430 345.944 657.375 Q 346.751 660.321 347.517 662.817 Q 348.283 665.312 349.340 669.191 Q 350.398 673.071 351.906 681.681 Q 353.414 690.291 354.258 694.666 Q 355.102 699.041 356.091 705.182 Q 357.079 711.323 358.729 720.179 Q 360.378 729.036 361.122 732.901 Q 361.865 736.766 362.935 742.899 Q 364.004 749.032 364.271 752.517 Q 364.538 756.002 364.871 760.079 Q 365.203 764.155 365.484 766.104 Q 365.765 768.053 367.500 776.315 Q 369.235 784.577 370.250 788.945 Q 371.266 793.313 372.132 796.644 Q 372.998 799.975 373.316 801.059 Q 373.633 802.143 375.683 808.957 Q 376.098 807.471 376.064 808.096 Q 376.031 808.721 376.580 806.112 Q 377.129 803.502 377.366 800.991 Q 377.603 798.480 377.742 796.233 Q 377.880 793.987 377.965 791.288 Q 378.050 788.589 378.145 786.842 Q 378.241 785.096 378.300 783.868 Q 378.359 782.639 378.371 781.781 Q 378.383 780.923 378.464 779.818 Q 378.545 778.714 378.426 778.097 Q 378.307 777.480 379.030 774.362 Q 379.752 771.243 380.736 767.621 Q 381.720 763.998 382.593 761.181 Q 383.467 758.363 385.268 752.918 Q 387.070 747.473 388.752 743.407 Q 390.434 739.340 392.038 736.596 Q 393.642 733.852 394.594 729.389 Q 395.545 724.925 396.509 721.496 Q 397.473 718.066 398.937 712.845 Q 400.402 707.623 401.042 702.115 Q 401.681 696.606 402.600 689.867 Q 403.518 683.129 404.202 679.589 Q 404.886 676.049 405.694 672.938 Q 406.502 669.827 407.271 666.904 Q 408.040 663.981 410.175 656.751 Q 412.311 649.522 413.448 639.662 Q 414.584 629.802 414.796 624.803 Q 415.008 619.803 416.144 613.367 Q 417.281 606.931 418.297 602.372 Q 419.313 597.813 419.792 595.708 Q 420.271 593.603 420.611 590.252 Q 420.950 586.901 422.619 580.202 Q 424.288 573.502 426.836 567.606 Q 429.384 561.710 431.436 556.516 Q 433.488 551.321 434.431 547.240 Q 435.375 543.159 436.145 539.008 Q 436.916 534.857 437.137 520.487 Q 437.359 506.118 437.381 498.455 Q 437.402 490.791 437.301 484.699 Q 437.199 478.607 436.816 466.438 Q 436.432 454.269 436.319 448.178 Q 436.205 442.086 435.770 437.182 Q 435.335 432.277 434.925 427.259 Q 434.515 422.240 433.734 418.046 Q 432.953 413.852 431.384 406.193 Q 429.815 398.534 428.594 391.872 Q 427.372 385.210 425.715 378.368 Q 424.058 371.527 422.802 367.714 Q 421.547 363.902 420.289 360.862 Q 419.032 357.821 416.908 353.942 Q 414.784 350.063 412.829 347.152 Q 410.874 344.241 405.699 339.967 Q 400.525 335.693 394.911 332.425 Q 389.298 329.156 383.062 325.713 Q 376.827 322.270 373.232 320.365 Q 369.636 318.460 367.556 317.403 Q 365.476 316.347 357.559 312.448 Q 356.992 313.134 358.550 315.320 Q 360.109 317.505 362.707 319.685 Q 365.305 321.865 373.604 327.675 Q 381.903 333.484 386.267 336.332 Q 390.630 339.179 392.613 340.525 Q 394.596 341.871 395.374 343.532 Q 393.800 344.098 388.499 342.707 Q 383.199 341.316 373.949 338.329 Q 364.700 335.342 358.624 333.576 Q 352.549 331.810 348.011 330.644 Q 343.473 329.478 337.400 329.427 Q 336.625 330.421 338.799 332.552 Q 340.972 334.684 373.327 350.566 Q 372.899 351.238 358.557 345.047 Q 344.215 338.856 320.483 332.587 Q 319.711 333.408 325.101 336.160 Q 330.491 338.912 337.099 341.197 Q 337.443 341.124 331.708 338.555 Q 325.974 335.987 321.615 333.775 Q 317.255 331.563 315.021 330.445 Q 312.786 329.327 311.499 328.751 Q 310.212 328.174 308.555 327.245 Q 306.898 326.316 297.483 323.116 Q 295.574 325.796 337.527 345.969 Q 337.318 345.802 334.901 344.588 Q 332.483 343.374 330.915 342.698 Q 329.348 342.022 323.770 339.478 Q 318.192 336.935 310.565 332.996 Q 310.855 332.572 317.796 334.479 Q 324.737 336.386 330.354 337.450 Q 335.972 338.514 340.429 339.015 Q 344.886 339.516 347.119 339.497 Q 349.351 339.477 350.436 339.222 Q 351.521 338.967 352.126 338.265 Q 352.731 337.562 352.607 336.982 Q 352.484 336.402 352.170 335.999 Q 351.857 335.595 351.355 334.963 Q 350.853 334.331 343.881 330.031 Q 336.909 325.732 332.936 323.484 Q 328.963 321.235 325.981 319.872 Q 322.999 318.509 320.388 316.810 Q 317.778 315.112 316.132 312.849 Q 317.340 311.775 332.810 315.821 Q 348.280 319.868 360.024 322.621 Q 371.768 325.375 380.997 326.334 Q 381.109 326.226 381.035 326.393 Q 380.960 326.561 380.802 325.558 Q 380.645 324.555 371.884 321.032 Q 363.123 317.509 355.751 314.898 Q 348.378 312.288 342.468 309.838 Q 336.557 307.389 333.159 305.855 Q 329.762 304.322 327.414 302.189 L 327.482 301.912 Q 329.423 301.519 332.516 302.179 Q 335.609 302.839 344.421 304.874 Q 353.232 306.909 358.943 308.049 Q 364.654 309.189 368.437 309.831 Q 372.221 310.474 375.785 311.073 Q 379.350 311.672 382.487 310.806 Q 383.843 308.368 372.332 303.066 Q 360.821 297.765 353.727 294.799 Q 346.633 291.833 342.978 290.142 Q 339.323 288.452 335.279 286.552 Q 331.235 284.652 327.501 281.496 Q 327.184 279.947 339.545 283.339 Q 351.907 286.731 362.561 289.452 Q 373.216 292.173 379.421 293.724 Q 385.625 295.276 390.273 295.345 Q 390.428 294.932 390.408 294.881 Q 390.387 294.831 390.301 294.581 Q 390.216 294.331 389.717 293.917 Q 389.218 293.503 388.726 293.211 Q 388.235 292.920 387.741 292.579 Q 387.247 292.238 382.294 289.749 Q 377.341 287.259 372.744 285.244 Q 368.146 283.229 364.850 281.856 Q 361.554 280.483 353.045 277.309 Q 344.536 274.136 339.346 272.075 Q 334.157 270.014 330.314 267.428 Q 330.890 266.812 340.903 269.723 Q 350.916 272.635 362.087 275.660 Q 373.258 278.684 383.635 280.781 Q 385.070 279.057 371.324 272.766 Q 357.578 266.475 350.175 263.085 Q 342.771 259.695 339.372 258.056 Q 335.973 256.416 334.186 255.469 Q 332.398 254.522 331.219 252.958 Q 331.574 251.881 339.452 253.652 Q 347.329 255.423 358.079 257.661 Q 368.828 259.900 374.488 261.190 Q 380.148 262.479 386.018 263.575 Q 391.888 264.670 397.291 263.677 Q 399.479 261.250 390.741 257.113 Q 382.003 252.976 373.909 249.241 Q 365.815 245.506 358.918 242.625 Q 352.022 239.744 347.423 237.848 Q 342.825 235.952 339.259 232.695 Q 340.697 231.625 350.458 234.014 Q 360.218 236.403 366.740 237.999 Q 373.262 239.594 378.992 239.204 Q 380.565 237.180 372.657 233.278 Q 364.748 229.376 356.909 225.885 Q 349.069 222.395 345.209 220.883 Q 341.350 219.371 339.197 218.473 Q 337.044 217.575 325.000 212.805 Q 324.869 212.326 335.348 216.216 Q 345.827 220.106 356.162 224.117 Q 366.497 228.129 372.240 230.447 Q 377.984 232.765 382.302 233.878 Q 382.671 233.318 371.055 228.112 Q 359.439 222.907 352.354 219.626 Q 345.269 216.344 342.102 214.882 Q 338.935 213.419 336.268 211.521 Q 333.600 209.622 331.784 206.946 Q 330.667 205.933 336.238 206.488 Q 341.809 207.043 345.492 207.784 Q 349.175 208.525 351.877 208.973 Q 354.578 209.422 358.074 209.999 Q 361.569 210.577 365.234 210.908 Q 368.898 211.240 371.139 211.196 Q 373.379 211.152 374.420 210.741 Q 375.461 210.330 375.918 208.594 Q 376.375 206.858 376.013 205.393 Q 375.651 203.927 372.185 201.463 Q 368.720 198.999 364.288 196.622 Q 359.856 194.246 355.311 191.822 Q 350.766 189.398 346.836 187.414 Q 342.906 185.430 340.486 182.254 Q 340.795 181.406 346.553 182.405 Q 352.312 183.405 355.549 183.969 Q 358.786 184.533 360.748 184.667 Q 362.711 184.801 363.084 184.456 Q 363.458 184.112 363.719 183.386 Q 363.981 182.660 363.641 181.968 Q 363.302 181.276 362.869 180.999 Q 362.437 180.723 361.523 179.986 Q 360.609 179.250 357.003 177.557 Q 353.398 175.864 345.034 173.063 Q 336.669 170.262 328.747 166.726 L 328.747 166.690 Q 329.070 166.526 334.422 168.552 Q 339.773 170.579 343.991 171.527 Q 348.209 172.475 350.424 172.711 Q 352.640 172.947 353.736 172.736 Q 354.832 172.525 355.075 172.143 Q 355.319 171.761 355.521 171.432 Q 355.722 171.103 355.533 170.524 Q 355.343 169.945 355.098 169.654 Q 354.852 169.364 352.247 167.778 Q 349.643 166.192 347.105 164.369 Q 347.486 163.753 352.271 164.225 Q 357.056 164.697 359.977 164.886 Q 362.897 165.075 364.348 165.029 Q 365.799 164.983 366.223 164.856 Q 366.648 164.730 366.551 164.763 Q 366.455 164.795 367.254 164.217 Q 368.053 163.639 367.828 163.815 Q 368.894 162.914 375.492 164.667 Q 382.090 166.420 386.355 167.451 Q 390.621 168.481 395.886 169.579 Q 401.151 170.676 404.621 171.425 Q 408.092 172.174 417.421 172.892 Q 417.425 172.401 408.504 170.694 Q 399.583 168.988 389.349 165.770 Q 389.827 165.488 399.417 167.269 Q 409.007 169.051 414.961 169.868 Q 420.915 170.685 424.361 171.120 Q 427.807 171.555 430.161 171.580 Q 432.515 171.604 433.613 171.602 Q 434.710 171.599 435.330 171.417 Q 435.949 171.234 436.059 170.705 Q 436.168 170.177 436.216 170.265 Q 436.263 170.352 435.535 169.921 Q 434.807 169.490 417.674 166.880 Q 417.507 167.346 438.523 172.892 Q 438.229 172.816 426.318 171.153 Q 414.406 169.490 408.068 168.590 Q 401.730 167.690 398.416 167.335 Q 395.102 166.980 392.999 167.813 Q 391.518 170.377 401.564 174.053 Q 411.610 177.729 420.103 180.789 Q 428.596 183.848 435.486 187.266 Q 434.086 188.352 376.520 176.555 Q 376.089 178.186 389.697 183.706 Q 403.306 189.226 414.458 192.891 Q 425.611 196.556 432.072 198.616 Q 438.532 200.675 445.434 204.224 Q 445.318 205.292 425.622 201.228 Q 405.927 197.164 382.292 193.717 L 382.107 193.994 Q 381.583 194.459 386.636 197.129 Q 391.689 199.799 395.177 201.583 Q 398.665 203.368 403.040 205.520 Q 407.414 207.672 414.300 210.709 Q 421.186 213.745 426.976 216.052 Q 432.765 218.359 436.819 220.459 Q 440.874 222.558 443.241 223.994 Q 445.608 225.430 446.622 227.486 Q 446.085 228.791 436.607 228.073 Q 427.129 227.354 416.475 225.470 Q 405.820 223.586 399.094 222.416 Q 392.367 221.246 387.100 221.174 Q 386.746 221.909 393.268 225.183 Q 399.791 228.458 405.344 230.600 Q 410.897 232.742 414.939 234.243 Q 418.981 235.743 421.407 236.521 Q 423.834 237.299 429.284 239.192 Q 434.735 241.086 437.923 242.568 Q 441.112 244.050 443.526 245.983 L 443.497 246.172 Q 443.211 247.198 431.656 245.846 Q 420.102 244.494 412.221 243.212 Q 404.340 241.929 395.043 241.838 Q 393.901 243.020 397.827 245.844 Q 401.752 248.669 408.651 251.640 Q 415.550 254.612 422.367 257.451 Q 429.184 260.290 432.517 261.788 Q 435.849 263.286 437.613 264.262 Q 439.376 265.238 441.193 266.430 Q 443.010 267.622 443.867 270.186 Q 443.703 270.111 443.364 270.603 Q 443.026 271.094 436.932 271.389 Q 430.838 271.683 425.077 271.617 Q 419.316 271.551 415.692 271.373 Q 412.068 271.196 402.460 270.988 Q 402.288 272.726 413.539 276.988 Q 424.790 281.250 433.902 284.744 Q 443.013 288.239 448.266 290.327 Q 453.519 292.415 456.998 295.133 Q 457.580 295.243 451.369 295.364 Q 445.157 295.485 395.169 285.188 Q 395.310 285.719 405.416 288.871 Q 415.522 292.024 428.885 295.128 Q 442.247 298.232 456.881 301.912 Q 456.772 302.534 438.915 300.420 Q 421.057 298.307 402.275 296.833 Q 402.808 297.952 412.498 301.580 Q 422.189 305.208 429.589 307.788 Q 436.990 310.367 440.854 311.719 Q 444.719 313.072 446.671 313.657 Q 448.623 314.242 452.872 315.805 Q 457.121 317.369 459.516 318.523 Q 461.912 319.677 463.133 320.347 Q 464.353 321.016 464.707 323.021 Q 463.768 324.057 453.238 324.265 Q 442.709 324.474 401.652 315.615 Q 402.453 315.595 413.013 318.394 Q 423.574 321.192 461.962 331.201 L 461.962 331.230 Q 461.704 331.841 443.562 329.827 Q 425.421 327.814 406.110 325.896 L 405.915 326.268 Q 405.888 328.543 424.026 335.030 Q 442.163 341.517 451.979 344.596 Q 461.795 347.675 466.756 349.321 Q 471.717 350.968 475.316 353.565 Q 475.543 354.106 467.724 353.885 Q 459.906 353.664 454.326 353.085 Q 448.746 352.505 425.714 349.194 Q 425.411 349.312 430.283 350.924 Q 435.156 352.537 446.966 355.807 Q 458.776 359.077 472.786 362.649 Q 472.889 363.010 459.974 360.754 Q 447.058 358.498 433.043 357.286 Q 432.671 357.808 440.168 360.467 Q 447.664 363.125 454.082 364.988 Q 460.500 366.851 465.704 368.487 Q 470.909 370.124 473.368 371.116 Q 475.828 372.107 476.929 372.704 Q 478.031 373.301 478.209 373.620 Q 478.387 373.939 478.322 374.010 Q 478.258 374.082 477.431 374.427 Q 476.604 374.772 476.429 374.935 Q 476.254 375.098 466.121 375.193 Q 455.988 375.289 445.015 375.747 Q 444.584 377.179 452.012 379.705 Q 459.441 382.230 466.078 384.110 Q 472.715 385.989 478.704 387.713 L 478.704 387.750 Q 478.102 388.064 461.841 384.297 Q 445.581 380.531 419.835 377.118 Q 420.060 378.063 432.824 382.402 Q 445.588 386.740 452.845 389.241 Q 460.101 391.743 463.684 393.068 Q 467.267 394.393 468.948 395.084 Q 470.630 395.776 471.401 396.394 Q 472.172 397.012 472.663 397.487 Q 473.154 397.962 473.504 398.477 Q 473.854 398.993 472.955 399.676 Q 472.056 400.359 470.725 400.780 Q 469.393 401.201 467.922 401.780 Q 466.451 402.358 458.904 403.023 Q 451.358 403.688 442.671 403.627 Q 433.984 403.565 427.793 403.341 Q 421.602 403.116 417.313 402.693 Q 413.024 402.269 405.429 402.584 Q 404.110 404.381 416.073 408.228 Q 428.035 412.076 436.376 413.984 Q 444.717 415.893 449.462 416.942 Q 454.207 417.991 457.815 419.811 Q 457.828 420.185 447.406 420.327 Q 436.984 420.469 420.618 418.823 Q 404.252 417.176 394.644 416.243 Q 385.036 415.310 378.058 415.258 Q 377.095 416.598 382.989 418.665 Q 388.883 420.732 396.852 422.941 Q 404.821 425.149 428.926 430.815 Q 428.842 431.543 415.015 429.468 Q 401.188 427.394 386.574 424.755 Q 371.959 422.117 362.885 420.203 Q 353.811 418.289 340.116 416.119 Q 340.362 416.603 347.752 418.823 Q 355.142 421.044 362.486 422.677 Q 369.831 424.311 377.260 424.306 Q 377.508 423.865 376.172 423.790 Q 374.836 423.714 365.859 421.214 Q 356.881 418.714 351.455 417.175 Q 346.029 415.636 343.175 414.849 Q 340.321 414.061 334.581 412.253 Q 328.841 410.446 323.063 407.823 Q 323.387 407.163 330.647 409.145 Q 337.906 411.128 343.553 412.650 Q 349.200 414.171 360.785 416.422 Q 372.370 418.673 383.470 419.899 L 383.470 419.935 Q 383.396 419.974 382.864 420.012 Q 382.332 420.049 382.057 420.037 Q 381.782 420.024 381.629 420.022 Q 381.477 420.020 380.252 420.011 Q 379.027 420.002 377.529 420.102 Q 376.032 420.203 362.753 418.331 Q 349.473 416.459 342.289 415.335 Q 335.106 414.210 332.226 413.948 Q 329.347 413.686 328.272 413.690 Q 327.198 413.695 326.703 413.608 Q 326.208 413.521 325.631 414.176 Q 325.054 414.830 325.298 415.868 Q 325.542 416.906 325.996 417.473 Q 326.450 418.040 326.655 418.398 Q 326.860 418.756 327.237 419.229 Q 327.614 419.703 327.394 420.361 Q 327.173 421.020 326.762 421.287 Q 326.351 421.554 326.184 421.616 Q 326.017 421.679 326.099 421.675 Q 326.180 421.671 325.378 422.013 Q 324.576 422.355 323.613 422.731 Q 322.649 423.108 322.062 424.480 Q 321.474 425.853 321.534 426.466 Q 321.593 427.079 321.554 427.461 Q 321.515 427.844 321.403 428.733 Q 321.291 429.623 322.804 432.520 Q 324.316 435.417 324.978 437.010 Q 325.640 438.602 325.611 440.984 Q 325.582 443.365 325.795 447.642 Q 326.008 451.919 326.948 455.559 Q 327.889 459.199 328.234 460.854 Q 328.578 462.509 329.154 466.724 Q 329.730 470.940 331.259 475.115 Q 332.788 479.289 334.624 483.745 Q 336.460 488.201 337.573 492.405 Q 338.685 496.610 339.782 502.685 Q 340.878 508.761 341.231 513.689 Q 341.584 518.617 341.488 523.011 Q 341.393 527.406 341.212 532.607 Q 341.031 537.809 341.074 540.506 Q 341.117 543.203 340.833 545.267 Q 340.548 547.331 341.590 555.153 Q 342.631 562.975 343.460 566.967 Q 344.289 570.958 345.672 579.035 Q 347.054 587.112 347.789 591.213 Q 348.525 595.315 349.277 600.560 Q 350.030 605.805 350.247 608.929 Q 350.464 612.053 352.311 620.994 Q 354.159 629.935 355.376 635.860 Q 356.594 641.785 357.353 644.629 Q 358.113 647.473 358.697 650.083 Q 359.281 652.693 360.543 657.046 Q 361.805 661.399 362.404 666.708 Q 363.003 672.016 364.784 677.690 Q 366.566 683.364 368.199 687.348 Q 369.833 691.333 370.480 693.993 Q 371.128 696.652 371.611 699.517 Q 372.094 702.382 375.430 716.990 Q 375.234 716.505 374.087 715.224 Q 372.939 713.942 372.120 705.773 Q 371.302 697.604 371.202 691.130 Q 371.102 684.656 371.437 680.124 Q 371.773 675.591 372.630 670.870 Q 373.488 666.150 374.551 661.296 Q 375.613 656.441 376.125 653.364 Q 376.638 650.287 377.290 648.078 Q 377.942 645.870 379.059 634.746 Q 380.175 623.622 380.443 617.006 Q 380.711 610.390 380.894 607.483 Q 381.078 604.576 380.529 600.410 Q 379.980 596.244 377.659 584.927 Q 375.339 573.611 373.646 565.984 Q 371.953 558.358 370.389 551.826 Q 368.824 545.294 366.861 540.065 Q 364.898 534.836 363.155 530.075 Q 361.412 525.314 358.853 519.627 Q 356.295 513.941 354.800 510.783 Q 353.306 507.626 350.302 502.695 Q 347.297 497.765 345.485 494.413 Q 343.673 491.061 343.117 489.191 Q 342.561 487.320 342.208 485.525 Q 341.856 483.729 342.003 481.901 Q 342.151 480.074 342.104 479.266 Q 342.057 478.459 343.413 476.044 Q 344.768 473.629 349.008 470.862 Q 353.248 468.096 359.488 465.613 Q 365.727 463.131 374.722 460.915 Q 383.716 458.700 388.396 457.704 Q 393.076 456.707 395.249 456.114 Q 397.422 455.520 398.543 454.798 Q 399.665 454.075 400.213 453.269 Q 400.761 452.463 400.751 451.564 Q 400.741 450.666 399.764 449.026 Q 398.787 447.385 393.523 444.722 Q 388.259 442.058 379.554 439.395 Q 370.848 436.731 365.349 435.308 Q 359.849 433.885 354.980 432.746 Q 350.112 431.606 344.478 430.067 Q 338.844 428.528 334.062 426.502 Q 334.829 425.894 344.084 427.746 Q 353.339 429.598 362.298 430.925 Q 371.256 432.252 380.992 433.385 Q 390.727 434.518 395.462 435.028 Q 400.196 435.539 403.063 435.937 Q 405.930 436.334 416.817 436.944 L 416.817 436.886 Q 416.271 436.462 411.757 435.785 Q 407.242 435.108 396.676 434.045 Q 386.111 432.982 375.169 432.024 Q 364.227 431.067 358.653 430.575 Q 353.079 430.083 350.187 430.002 Q 347.296 429.921 345.168 430.691 Q 344.772 432.328 355.409 436.713 Q 366.045 441.097 372.123 443.309 Q 378.200 445.520 382.891 447.431 Q 387.582 449.341 390.633 450.624 Q 393.683 451.907 395.369 452.937 Q 397.054 453.966 397.615 454.740 Q 398.175 455.514 398.222 456.941 Q 398.268 458.369 391.999 459.336 Q 385.729 460.303 379.292 460.412 Q 372.855 460.520 365.903 460.527 Q 358.951 460.534 353.002 460.358 Q 347.053 460.183 330.596 460.060 Q 329.679 461.526 333.121 463.119 Q 336.562 464.712 342.232 466.582 Q 347.901 468.452 354.756 470.450 Q 361.611 472.449 407.843 480.943 Q 407.961 481.103 398.143 479.364 Q 388.326 477.626 380.498 476.529 Q 372.670 475.432 366.619 474.631 Q 360.569 473.831 348.321 470.749 Q 348.047 469.994 359.421 471.205 Q 370.794 472.416 381.142 472.806 Q 391.490 473.197 397.306 473.436 Q 403.122 473.675 407.006 472.428 Q 408.092 470.411 393.433 467.619 Q 378.773 464.826 368.309 462.982 Q 357.845 461.138 348.808 457.958 Q 348.862 457.081 358.120 457.617 Q 367.377 458.153 375.236 458.545 Q 383.095 458.938 387.305 458.959 Q 391.514 458.979 394.577 458.969 Q 397.641 458.958 399.384 458.952 Q 401.127 458.946 405.568 458.991 Q 410.008 459.035 412.624 458.887 Q 415.239 458.739 416.780 458.496 Q 418.322 458.252 418.631 457.887 Q 418.940 457.521 418.600 456.584 Q 418.260 455.647 414.756 454.683 Q 411.251 453.719 402.812 452.610 Q 394.372 451.500 389.075 450.863 Q 383.778 450.226 380.574 449.803 Q 377.369 449.379 372.957 447.794 Q 373.744 447.387 378.646 447.533 Q 383.548 447.679 389.017 448.210 Q 394.487 448.741 411.113 449.217 Q 410.843 449.165 395.720 449.557 Q 380.597 449.949 372.365 450.046 Q 364.133 450.144 359.856 450.271 Q 355.578 450.398 352.487 452.041 Q 351.337 453.556 359.519 456.532 Q 367.701 459.509 373.826 461.253 Q 379.951 462.996 384.208 464.089 Q 388.465 465.181 390.780 465.758 Q 393.095 466.335 397.113 467.366 Q 401.131 468.398 407.091 469.642 Q 413.051 470.886 418.277 472.221 Q 423.503 473.556 425.923 474.278 Q 428.344 474.999 429.622 475.535 Q 430.901 476.070 431.427 476.820 Q 431.161 477.437 422.526 477.882 Q 413.891 478.328 408.346 478.367 Q 402.801 478.405 391.749 478.384 Q 380.697 478.362 373.890 478.242 Q 367.083 478.122 358.921 478.192 Q 359.030 478.658 364.310 480.076 Q 369.590 481.494 377.853 483.044 Q 386.116 484.595 390.986 485.410 Q 395.856 486.224 400.169 486.895 Q 404.482 487.565 414.267 489.903 Q 413.380 490.227 410.826 490.455 Q 408.273 490.682 401.176 490.919 Q 394.078 491.155 359.389 490.735 L 359.291 491.012 Q 360.220 491.664 362.864 492.405 Q 365.507 493.146 371.092 494.343 Q 376.677 495.539 390.528 497.615 Q 404.379 499.691 412.578 500.794 Q 420.778 501.897 426.025 503.438 Q 425.801 504.021 408.617 503.632 Q 391.434 503.242 379.592 502.796 Q 367.751 502.349 358.396 502.796 Q 357.780 504.256 364.634 506.422 Q 371.487 508.587 379.792 510.453 Q 388.096 512.318 392.313 513.036 Q 396.530 513.755 402.699 514.861 Q 408.869 515.967 412.456 516.521 Q 416.043 517.076 418.102 518.966 Q 417.465 519.813 415.891 520.391 Q 414.317 520.969 408.679 521.950 Q 403.041 522.931 398.314 523.445 Q 393.587 523.959 389.624 524.215 Q 385.661 524.471 383.231 524.582 Q 380.802 524.693 376.065 524.784 Q 371.328 524.876 366.465 525.693 L 366.407 526.065 Q 366.924 527.344 381.946 529.703 Q 396.968 532.062 406.485 532.899 Q 416.001 533.736 422.531 535.697 L 422.560 535.909 Q 422.323 536.498 415.575 536.979 Q 408.827 537.460 394.318 537.570 Q 379.809 537.679 369.301 537.527 Q 358.793 537.374 350.268 538.112 L 350.083 538.514 Q 351.014 539.191 351.172 539.149 Q 351.329 539.107 352.026 539.689 Q 352.723 540.271 362.059 542.366 Q 371.395 544.462 376.537 545.434 Q 381.680 546.407 387.119 547.265 Q 392.557 548.123 397.955 548.940 Q 403.352 549.758 406.806 550.713 Q 410.260 551.668 412.359 553.297 Q 412.417 554.851 400.408 557.009 Q 388.399 559.167 378.961 559.889 Q 369.522 560.610 362.231 562.162 L 362.163 562.563 Q 362.815 563.932 377.537 565.869 Q 392.259 567.807 400.067 568.388 Q 407.874 568.969 412.110 569.509 Q 416.345 570.050 418.842 571.327 Q 416.905 571.944 417.156 572.003 Q 417.407 572.061 408.736 572.505 Q 400.065 572.949 395.039 573.083 Q 390.013 573.218 383.965 573.354 Q 377.916 573.489 374.232 573.596 Q 370.548 573.703 363.648 573.689 Q 356.749 573.675 350.015 574.858 L 349.927 575.230 Q 351.187 576.345 357.534 577.776 Q 363.882 579.206 370.395 580.200 Q 376.908 581.194 383.565 581.862 Q 390.222 582.531 395.278 582.894 Q 400.333 583.258 417.187 584.745 Q 417.458 585.711 404.189 587.087 Q 390.921 588.464 383.151 588.947 Q 375.381 589.431 371.406 589.598 Q 367.430 589.766 365.192 589.772 Q 362.954 589.779 361.141 591.006 Q 361.216 592.466 372.575 594.406 Q 383.933 596.347 391.114 597.278 Q 398.295 598.209 403.180 599.835 Q 403.278 599.898 403.200 599.746 Q 403.123 599.594 403.136 600.324 Q 403.148 601.054 395.628 602.572 Q 388.108 604.089 378.965 605.029 Q 369.822 605.970 365.136 606.454 Q 360.450 606.939 358.205 607.312 Q 355.960 607.684 354.738 608.178 Q 353.516 608.671 352.809 610.087 Q 352.871 612.265 365.747 615.171 Q 378.623 618.078 385.299 619.304 Q 391.976 620.530 395.360 621.297 Q 398.744 622.063 401.029 623.104 Q 401.520 624.158 390.074 624.673 Q 378.629 625.189 371.109 625.305 Q 363.590 625.420 358.152 626.760 Q 357.428 626.929 359.968 628.024 Q 362.508 629.118 365.550 629.748 Q 368.593 630.377 370.769 630.803 Q 372.946 631.229 379.323 632.347 Q 385.700 633.465 388.958 633.985 Q 392.216 634.505 393.653 635.007 Q 395.090 635.509 395.503 635.824 Q 395.916 636.139 395.748 636.809 Q 395.580 637.479 390.884 638.733 Q 386.188 639.988 382.991 640.681 Q 379.795 641.373 375.488 642.228 Q 371.180 643.082 368.994 643.449 Q 366.807 643.817 365.490 644.342 Q 364.173 644.868 363.485 646.332 Q 362.797 647.796 369.999 650.007 Q 377.201 652.218 381.084 653.210 Q 384.967 654.201 387.295 654.801 Q 389.623 655.400 391.485 655.949 Q 393.348 656.497 394.108 656.935 Q 394.867 657.373 395.289 658.541 Q 395.711 659.709 391.725 661.227 Q 387.738 662.745 383.434 663.808 Q 379.130 664.870 375.254 667.322 Q 374.641 668.119 377.824 669.275 Q 381.008 670.431 384.787 671.389 Q 388.566 672.348 390.277 672.846 Q 391.988 673.344 393.147 673.847 Q 394.307 674.350 394.229 673.973 Q 394.151 673.596 394.420 675.873 Q 394.038 676.329 391.155 678.025 Q 388.272 679.721 385.898 681.144 Q 383.524 682.567 382.049 683.424 Q 380.573 684.282 379.874 685.561 Q 379.175 686.841 379.633 688.079 Q 380.091 689.317 381.984 690.714 Q 383.876 692.110 385.225 693.554 Q 386.573 694.998 387.076 696.969 Q 387.580 698.940 385.507 702.079 Q 383.434 705.217 381.267 707.427 Q 379.101 709.638 377.006 711.311 Q 374.911 712.985 373.767 714.105 Q 372.623 715.224 372.172 717.180 Q 371.720 719.136 374.642 721.318 Q 377.563 723.500 379.254 724.623 Q 380.944 725.745 381.987 726.609 Q 383.030 727.473 383.338 729.325 Q 383.646 731.178 368.519 731.211 Q 368.826 730.958 370.450 730.046 Q 372.074 729.134 372.922 728.311 Q 373.771 727.487 374.411 726.653 Q 375.050 725.819 375.495 723.767 Q 375.939 721.714 377.230 717.212 Q 378.521 712.710 381.593 707.706 Q 384.665 702.703 388.209 697.352 Q 391.753 692.001 393.509 688.906 Q 395.266 685.811 400.074 681.243 Q 404.883 676.674 407.404 674.003 Q 409.926 671.332 410.922 670.175 Q 411.918 669.018 413.170 666.892 Q 414.422 664.766 414.834 660.445 Q 415.245 656.124 415.419 653.990 Q 415.593 651.857 415.922 650.755 Q 416.250 649.653 416.198 647.548 Q 416.147 645.443 416.049 643.335 Q 415.952 641.227 417.481 638.562 Q 419.010 635.898 420.476 633.092 Q 421.942 630.286 422.472 628.856 Q 423.002 627.425 423.251 626.944 Q 423.500 626.463 423.765 625.782 Q 424.030 625.101 425.572 623.456 Q 427.114 621.811 428.052 619.936 Q 428.990 618.061 429.060 616.822 Q 429.130 615.584 429.130 614.912 Q 429.129 614.241 429.126 614.205 Q 429.122 614.170 429.079 613.303 Q 429.037 612.436 429.632 611.249 Q 430.228 610.062 431.119 608.884 Q 432.009 607.706 432.697 606.691 Q 433.385 605.677 433.877 604.705 Q 434.369 603.734 434.760 602.466 Q 435.150 601.199 435.185 600.570 Q 435.220 599.942 435.428 598.079 Q 435.636 596.216 436.901 591.210 Q 438.166 586.205 438.656 581.262 Q 439.145 576.319 438.949 573.964 Q 438.753 571.609 440.164 566.626 Q 441.576 561.643 442.555 558.669 Q 443.535 555.695 444.016 554.248 Q 444.496 552.802 444.801 552.010 Q 445.105 551.218 445.693 550.193 Q 446.281 549.167 447.387 547.005 Q 448.493 544.843 449.993 541.236 Q 451.492 537.629 452.175 534.592 Q 452.857 531.555 452.972 530.198 Q 453.087 528.841 453.248 528.208 Q 453.408 527.574 453.543 527.015 Q 453.677 526.457 453.874 525.718 Q 454.070 524.979 454.802 523.254 Q 455.534 521.529 456.919 518.446 Q 458.304 515.363 458.840 513.213 Q 459.376 511.063 460.768 506.004 Q 462.159 500.945 462.493 495.530 Q 462.827 490.115 462.892 487.233 Q 462.957 484.352 462.788 482.364 Q 462.618 480.376 461.972 477.162 Q 461.325 473.948 461.987 470.246 Q 462.648 466.544 462.776 464.875 Q 462.903 463.205 464.790 460.890 Q 466.677 458.574 470.077 456.183 Q 473.478 453.792 475.770 451.715 Q 478.063 449.638 479.115 448.004 Q 480.167 446.370 480.300 445.126 Q 480.434 443.882 480.356 443.491 Q 480.279 443.099 479.931 442.205 Q 479.584 441.311 475.867 440.024 Q 472.150 438.737 469.837 438.360 Q 467.525 437.982 461.304 437.329 Q 455.083 436.676 443.040 434.930 Q 442.921 434.895 448.333 434.537 Q 453.745 434.178 457.562 433.401 Q 461.379 432.624 463.982 432.109 Q 466.585 431.593 468.191 429.355 Q 468.758 428.175 448.666 427.648 Q 448.325 427.967 455.480 427.895 Q 462.634 427.824 466.833 427.898 Q 471.031 427.973 474.024 427.360 Q 477.017 426.747 478.723 426.046 Q 480.429 425.345 480.846 424.403 Q 481.264 423.461 480.937 422.505 Q 480.609 421.548 473.666 420.375 Q 466.723 419.202 459.665 417.739 L 459.665 417.615 Q 459.857 417.709 480.572 415.317 Q 479.949 415.190 476.276 416.536 Q 472.604 417.882 467.797 419.261 Q 462.991 420.641 460.075 421.928 Q 457.160 423.215 455.578 424.052 Q 453.995 424.889 453.158 426.015 Q 452.321 427.141 452.333 428.353 Q 452.345 429.564 452.566 430.482 Q 452.787 431.399 455.088 433.554 Q 457.390 435.708 458.761 436.936 Q 460.131 438.165 461.167 439.784 Q 462.203 441.404 457.441 443.203 Q 452.679 445.003 449.921 445.952 Q 447.164 446.901 445.766 447.553 Q 444.367 448.205 443.799 448.951 Q 443.232 449.697 443.728 450.470 Q 444.225 451.244 450.398 453.434 Q 449.626 453.700 431.933 452.252 Q 432.008 452.238 431.968 452.195 Q 431.927 452.151 431.766 452.514 Q 431.606 452.876 436.781 453.931 Q 437.363 452.361 430.600 447.918 "></path>
    <path id="STROKE_6b8162c5-228e-4e6b-b07a-744610ccfc82" opacity="1.000" fill="none" stroke="#85929c" stroke-width="31.000" stroke-opacity="1.000" stroke-linecap="round" stroke-linejoin="round" d="M 339.117 312.888 L 340.065 220.697 L 430.890 221.631 L 429.942 313.823 Z"></path>
    <path id="STROKE_30afa61b-17a3-4901-bfb0-053283ba2dfa" opacity="1.000" fill="none" stroke="#85929c" stroke-width="31.000" stroke-opacity="1.000" stroke-linecap="round" stroke-linejoin="round" d="M 341.153 451.236 L 342.102 359.045 L 432.927 359.979 L 431.978 452.170 Z"></path>
    <path id="STROKE_7d8d23ce-4e9f-4cbf-8eab-5e2115c185fa" opacity="1.000" fill="none" stroke="#85929c" stroke-width="31.000" stroke-opacity="1.000" stroke-linecap="round" stroke-linejoin="round" d="M 339.285 594.134 L 340.234 501.943 L 431.059 502.877 L 430.110 595.068 Z"></path>
    <path id="STROKE_a30f10f0-646e-4840-a63d-aa4861c30a57" opacity="1.000" fill="none" stroke="#6d7881" stroke-width="31.000" stroke-opacity="1.000" stroke-linecap="round" stroke-linejoin="round" d="M 363.511 430.690 L 361.957 382.079 L 410.568 380.525 L 412.122 429.136 Z"></path>
    <path id="STROKE_51544287-ca00-4499-8329-2bb294acfdda" opacity="1.000" fill="none" stroke="#6d7881" stroke-width="30.000" stroke-opacity="1.000" stroke-linecap="round" stroke-linejoin="round" d="M 384.000 411.172 L 384.000 400.000 L 400.000 400.000 L 400.000 416.000 L 400.000 416.000 "></path>
    <path id="STROKE_2620c9c8-9ee6-4aba-a8cf-8ffd16b2f277" opacity="1.000" fill="none" stroke="#6d7881" stroke-width="30.000" stroke-opacity="1.000" stroke-linecap="round" stroke-linejoin="round" d="M 400.000 416.000 L 391.334 416.000 L 400.000 416.000 L 400.000 400.000 "></path>
    <path id="STROKE_e2b3d419-653a-4f3c-85a3-e4885e48c2b7" opacity="1.000" fill="none" stroke="#85929c" stroke-width="30.000" stroke-opacity="1.000" stroke-linecap="round" stroke-linejoin="round" d="M 352.000 304.000 L 352.000 295.403 "></path>
    <path id="STROKE_223f71ae-e897-4daf-bf0f-01670f4afc9c" opacity="1.000" fill="none" stroke="#85929c" stroke-width="30.000" stroke-opacity="1.000" stroke-linecap="round" stroke-linejoin="round" d="M 377.785 291.127 Q 376.541 290.613 376.578 290.697 Q 375.944 290.368 372.042 289.580 Q 370.862 289.562 377.763 291.290 Q 384.664 293.018 388.373 293.889 Q 392.083 294.761 393.970 295.541 Q 395.857 296.322 396.172 296.513 Q 396.487 296.703 396.952 297.010 Q 397.417 297.316 397.777 297.718 Q 398.138 298.120 398.225 298.625 Q 398.312 299.130 398.302 299.105 Q 398.292 299.081 398.406 299.076 Q 398.521 299.070 398.216 299.496 Q 397.910 299.923 397.654 300.115 Q 397.398 300.307 397.411 300.202 Q 397.425 300.097 396.267 300.700 Q 395.110 301.304 372.412 300.365 Q 374.339 300.208 374.351 300.272 Q 374.363 300.337 378.825 300.321 Q 383.287 300.305 386.835 299.797 Q 390.384 299.288 392.730 298.482 Q 395.076 297.676 396.043 296.402 Q 397.011 295.128 397.238 293.849 Q 397.464 292.571 396.991 291.504 Q 396.517 290.438 395.437 289.380 Q 394.357 288.322 382.555 285.742 Q 381.901 285.561 387.885 286.124 Q 393.869 286.686 397.615 287.253 Q 401.362 287.821 403.891 289.084 Q 403.891 290.105 403.891 289.865 Q 403.804 290.219 403.400 290.723 Q 402.996 291.227 403.107 291.141 Q 403.218 291.055 403.178 291.047 Q 403.138 291.039 402.889 291.899 Q 402.640 292.760 402.672 293.552 Q 402.704 294.343 404.131 295.408 Q 405.558 296.472 406.655 296.944 Q 407.753 297.417 408.307 297.668 Q 408.862 297.919 409.223 297.595 Q 409.585 297.272 409.569 296.859 Q 409.553 296.447 409.734 296.348 Q 409.914 296.249 408.855 294.486 Q 407.796 292.723 405.325 290.517 Q 402.854 288.311 400.912 285.801 Q 399.676 285.897 411.765 286.114 Q 411.918 285.372 411.765 285.494 Q 410.565 284.983 410.736 285.070 Q 410.908 285.158 409.692 284.827 Q 408.477 284.497 405.544 283.849 Q 402.611 283.201 400.764 282.876 Q 398.916 282.551 397.846 281.094 Q 397.459 281.009 400.173 280.356 Q 402.887 279.704 404.241 278.963 Q 405.595 278.223 406.300 277.573 Q 407.005 276.923 407.315 276.000 Q 407.625 275.077 407.572 274.130 Q 407.518 273.183 406.346 272.541 Q 405.174 271.899 403.903 271.293 Q 402.631 270.687 393.612 267.800 L 393.641 267.734 Q 393.891 267.523 400.762 267.767 Q 407.633 268.011 414.364 266.588 Q 414.284 266.529 414.486 266.601 Q 414.688 266.673 414.092 266.147 Q 413.497 265.621 408.656 264.958 Q 403.815 264.295 398.382 261.882 Q 398.534 261.844 398.229 261.841 Q 397.925 261.839 399.145 261.558 Q 400.365 261.276 401.319 261.196 Q 402.273 261.116 402.590 261.062 Q 402.906 261.008 405.174 260.767 Q 407.441 260.525 409.216 260.175 Q 410.990 259.825 413.042 258.512 Q 415.094 257.198 413.515 255.862 Q 411.937 254.526 408.605 253.564 Q 405.272 252.603 402.772 251.964 Q 400.271 251.326 399.277 249.799 Q 398.478 249.497 402.343 249.276 Q 406.207 249.054 408.508 248.892 Q 410.810 248.729 411.878 248.424 Q 412.947 248.118 413.182 247.675 Q 413.418 247.233 413.567 247.061 Q 413.716 246.890 413.697 246.957 Q 413.678 247.024 413.283 246.580 Q 412.888 246.136 408.005 245.565 Q 403.121 244.995 397.583 243.319 L 397.583 243.290 Q 398.920 243.481 402.946 243.448 Q 406.972 243.415 408.928 243.324 Q 410.884 243.233 411.817 243.115 Q 412.749 242.996 413.197 242.873 Q 413.646 242.750 413.965 241.276 Q 413.863 240.737 406.420 239.999 Q 398.978 239.262 394.889 239.251 Q 390.801 239.240 389.089 239.174 Q 387.378 239.108 386.190 239.415 Q 385.003 239.722 384.570 240.128 Q 384.137 240.534 383.893 240.919 Q 383.650 241.304 383.654 241.315 Q 383.658 241.326 383.659 241.235 Q 383.660 241.145 383.470 242.050 Q 382.444 241.857 385.942 242.677 Q 385.780 242.587 357.442 242.393 Q 356.951 244.123 364.099 245.171 Q 371.246 246.220 379.060 245.829 Q 378.975 245.119 378.931 245.125 Q 378.887 245.132 378.886 245.186 Q 378.885 245.240 378.493 244.944 Q 378.101 244.648 371.504 243.328 Q 364.906 242.007 357.559 242.305 Q 357.462 243.280 357.500 243.261 Q 356.758 244.905 363.973 248.277 Q 371.189 251.650 378.953 255.125 Q 379.105 255.854 373.299 256.203 Q 367.493 256.553 363.981 257.009 Q 360.469 257.465 358.889 257.604 Q 357.309 257.743 355.839 259.642 Q 354.368 261.541 362.194 264.568 Q 370.020 267.594 380.997 271.018 L 380.997 271.083 Q 380.954 271.096 380.585 271.134 Q 380.216 271.171 374.801 271.177 Q 369.386 271.182 356.264 270.835 Q 355.479 271.119 357.334 272.035 Q 359.189 272.951 363.706 274.159 Q 368.222 275.366 372.957 277.161 Q 372.957 277.220 372.957 277.249 Q 372.914 277.400 368.463 277.251 Q 364.012 277.102 359.291 278.424 Q 359.406 278.205 359.190 278.549 Q 358.973 278.893 359.664 279.799 Q 360.356 280.705 367.526 281.583 "></path>
    <path id="STROKE_7f8f1028-02af-4129-a4d1-2d98f37affd4" opacity="1.000" fill="none" stroke="#85929c" stroke-width="30.000" stroke-opacity="1.000" stroke-linecap="round" stroke-linejoin="round" d="M 357.500 522.038 Q 357.652 521.590 356.936 523.957 Q 357.572 524.584 367.812 524.052 Q 378.052 523.519 387.025 522.490 Q 395.998 521.461 408.213 516.456 Q 408.725 516.144 398.104 515.746 Q 387.483 515.348 380.756 514.988 Q 374.028 514.628 368.129 513.851 Q 367.961 513.819 377.998 513.910 Q 388.035 514.001 399.919 514.938 Q 400.147 516.588 395.805 517.619 Q 391.463 518.650 388.916 519.225 Q 386.370 519.800 382.633 520.485 Q 378.896 521.170 376.452 521.700 Q 374.007 522.229 373.135 522.526 Q 372.263 522.822 370.824 524.021 Q 369.386 525.220 371.145 526.168 Q 372.905 527.116 377.257 528.059 Q 381.609 529.001 386.929 529.631 Q 392.249 530.260 407.843 530.458 Q 406.522 530.484 400.462 530.796 Q 394.402 531.108 385.311 531.363 Q 376.221 531.618 368.963 531.924 Q 361.705 532.230 356.138 533.559 Q 355.973 534.340 365.337 535.143 Q 374.701 535.946 382.202 536.047 Q 389.702 536.149 402.470 535.288 Q 403.570 535.978 392.832 536.794 Q 382.095 537.609 375.950 538.293 Q 369.806 538.978 366.519 539.245 Q 363.233 539.513 360.654 541.432 Q 360.338 542.078 365.011 543.567 Q 369.684 545.056 399.121 545.212 Q 398.209 545.462 388.555 546.728 Q 378.901 547.995 371.994 548.501 Q 365.086 549.007 359.544 550.633 L 359.486 550.940 Q 360.315 553.069 395.539 555.646 Q 395.522 556.486 385.141 557.152 Q 374.761 557.818 368.149 558.109 Q 361.537 558.400 356.819 559.929 Q 358.615 562.246 392.473 563.775 Q 392.502 563.833 392.502 563.928 Q 392.553 564.286 387.032 564.743 Q 381.511 565.200 378.231 565.364 Q 374.950 565.528 369.252 565.529 Q 363.555 565.531 358.376 566.832 Q 358.471 567.684 369.876 568.926 Q 381.282 570.168 393.982 569.036 L 393.982 568.999 Q 393.805 569.027 389.328 569.012 Q 384.852 568.996 379.101 569.048 Q 373.350 569.099 367.892 569.156 Q 362.435 569.213 357.870 570.276 Q 357.897 573.402 410.938 573.654 Q 410.096 574.024 390.147 573.596 Q 390.844 573.521 394.570 573.664 Q 398.297 573.807 400.584 573.766 Q 402.872 573.725 404.898 572.978 Q 406.924 572.232 407.398 570.863 Q 407.872 569.495 409.607 567.640 Q 411.343 565.785 412.120 564.674 Q 412.897 563.563 413.291 562.143 Q 413.684 560.722 413.707 559.328 Q 413.730 557.934 413.453 557.399 Q 413.177 556.863 413.111 556.501 Q 413.045 556.139 413.087 556.103 Q 413.129 556.066 413.087 556.117 Q 413.046 556.168 413.439 555.830 Q 413.832 555.492 414.094 555.300 Q 414.356 555.108 414.248 555.193 Q 414.140 555.277 414.465 554.902 Q 414.791 554.526 414.824 553.095 Q 414.858 551.664 414.978 550.737 Q 415.098 549.810 415.409 549.393 Q 415.719 548.977 417.015 547.643 Q 418.310 546.310 419.575 544.553 Q 420.840 542.797 421.300 541.671 Q 421.761 540.545 421.875 539.316 Q 421.990 538.087 421.600 537.035 Q 421.210 535.984 420.088 535.040 "></path>
  </g>
</svg>