<?xml version="1.0" encoding="UTF-8" standalone="yes"?>
<svg xmlns="http://www.w3.org/2000/svg" xmlns:xlink="http://www.w3.org/1999/xlink" width="253.379pt" height="1299.525pt" version="1.1" viewBox="950.445 -398.121 253.379 1299.525">
  <!--
	Exported with Concepts: Smarter Sketching
	Version: 1947 on iOS 16.4
	https://concepts.app/
	-->
  <title>E0D0F26E-B164-4299-ADDE-9DF7FAED407D</title>
  <desc>Drawing exported from Concepts: Smarter Sketching</desc>
  <defs></defs>
  <g id="Stift" opacity="1.000">
    <path id="STROKE_9a202238-ff9d-4fd3-8202-9f4ae95e1d23" opacity="1.000" fill="none" stroke="#a2afb8" stroke-width="31.000" stroke-opacity="1.000" stroke-linecap="round" stroke-linejoin="round" d="M 981.139 872.322 L 979.526 -7.227 L 1173.130 -7.581 L 1174.743 871.968 Z"></path>
    <path id="STROKE_e5654791-3f4c-4a33-8514-05a53c514906" opacity="1.000" fill="none" stroke="#a2afb8" stroke-width="31.000" stroke-opacity="1.000" stroke-linecap="round" stroke-linejoin="round" d="M 1005.824 -17.363 L 1004.457 -368.482 L 1147.776 -369.040 L 1149.143 -17.921 Z"></path>
    <path id="STROKE_cce1e8a1-467e-46a2-8ac6-f5d0eb435f65" opacity="1.000" fill="none" stroke="#a2afb8" stroke-width="30.000" stroke-opacity="1.000" stroke-linecap="round" stroke-linejoin="round" d="M 992.000 832.000 L 1024.000 832.000 L 1040.000 832.000 L 1040.000 832.000 "></path>
    <path id="STROKE_f89b8d3b-1582-43c5-97ab-cb77a562df2e" opacity="1.000" fill="none" stroke="#a2afb8" stroke-width="30.000" stroke-opacity="1.000" stroke-linecap="round" stroke-linejoin="round" d="M 1009.781 840.415 Q 1009.862 841.696 1009.871 843.248 Q 1009.880 844.800 1014.995 846.601 Q 1020.111 848.403 1029.122 848.907 Q 1038.134 849.412 1046.493 848.317 Q 1047.720 848.293 1008.902 849.992 Q 1008.233 850.601 1017.744 851.464 Q 1027.255 852.327 1032.291 852.579 Q 1037.328 852.832 1039.848 852.702 Q 1042.369 852.573 1043.490 851.927 Q 1044.610 851.280 1044.769 851.004 Q 1044.929 850.728 1044.714 850.891 Q 1044.500 851.055 1044.485 850.260 Q 1044.470 849.464 1033.787 849.230 Q 1023.104 848.996 1013.460 848.967 Q 1003.816 848.938 995.527 851.416 Q 994.828 852.953 1004.055 854.188 Q 1013.282 855.424 1018.768 855.543 Q 1024.253 855.663 1028.001 854.986 Q 1031.750 854.308 1032.738 853.888 Q 1033.726 853.467 1035.006 853.015 Q 1036.287 852.563 1036.215 851.085 Q 1036.143 849.607 1018.948 846.237 L 1018.948 846.195 Q 1021.037 845.502 1034.885 847.264 Q 1048.733 849.026 1057.840 850.152 Q 1066.948 851.278 1079.207 850.802 Q 1078.327 850.793 1053.787 850.844 Q 1052.553 851.526 1062.748 853.511 Q 1072.942 855.496 1079.809 856.476 Q 1086.675 857.456 1091.954 856.344 Q 1091.838 856.369 1092.026 855.235 Q 1092.213 854.100 1080.346 850.465 Q 1068.478 846.831 1059.910 844.931 Q 1051.342 843.032 1045.786 842.112 Q 1040.229 841.192 1025.604 836.604 Q 1027.002 835.576 1043.213 836.799 Q 1059.424 838.023 1068.326 838.745 Q 1077.228 839.466 1086.028 839.613 Q 1094.828 839.759 1102.000 838.279 Q 1102.814 837.097 1100.411 836.154 Q 1098.007 835.210 1095.815 834.486 Q 1093.622 833.762 1091.911 833.262 Q 1090.200 832.763 1084.174 831.289 Q 1078.148 829.816 1066.647 827.284 Q 1055.146 824.752 1048.904 823.532 Q 1042.663 822.313 1038.792 821.210 Q 1034.922 820.106 1032.281 818.428 Q 1032.156 817.665 1048.265 817.773 Q 1064.373 817.880 1073.028 817.859 Q 1081.682 817.839 1085.618 817.791 Q 1089.554 817.743 1091.016 817.478 Q 1092.479 817.212 1092.894 816.560 Q 1093.309 815.907 1093.450 815.177 Q 1093.591 814.447 1089.559 812.881 Q 1085.526 811.315 1065.682 808.190 Q 1045.838 805.064 1025.604 800.893 Q 1025.424 799.838 1042.538 801.743 Q 1059.651 803.649 1069.391 804.657 Q 1079.131 805.666 1086.007 805.999 Q 1092.883 806.331 1098.672 804.453 Q 1099.252 801.586 1085.754 798.274 Q 1072.256 794.961 1064.462 793.355 Q 1056.668 791.749 1050.886 790.506 Q 1045.103 789.263 1040.988 787.100 Q 1042.918 786.074 1056.523 787.039 Q 1070.129 788.004 1078.201 788.871 Q 1086.273 789.738 1089.745 789.775 Q 1093.217 789.813 1095.836 789.773 Q 1098.455 789.733 1099.715 788.545 Q 1100.974 787.357 1101.261 785.543 Q 1101.548 783.729 1097.637 781.015 Q 1093.726 778.301 1085.616 774.718 Q 1077.507 771.136 1070.827 768.406 Q 1064.147 765.677 1058.195 763.577 Q 1052.243 761.477 1048.914 759.858 Q 1045.585 758.238 1043.979 756.805 Q 1042.373 755.373 1041.780 753.391 Q 1041.186 751.409 1047.462 750.063 Q 1053.738 748.716 1061.528 747.324 Q 1069.319 745.932 1073.631 745.371 Q 1077.943 744.809 1081.270 743.329 Q 1084.596 741.849 1086.313 739.682 Q 1088.031 737.516 1088.352 735.270 Q 1088.673 733.025 1087.597 731.001 Q 1086.521 728.977 1082.865 726.579 Q 1079.210 724.181 1070.996 720.798 Q 1062.783 717.415 1055.292 714.149 Q 1047.800 710.883 1044.189 709.034 Q 1040.579 707.185 1039.025 706.019 Q 1037.472 704.853 1036.549 703.680 Q 1035.627 702.508 1035.917 701.709 Q 1036.207 700.911 1037.872 700.497 Q 1039.538 700.084 1044.233 699.827 Q 1048.928 699.571 1060.311 699.462 Q 1071.694 699.354 1077.839 699.448 Q 1083.985 699.542 1087.115 699.386 Q 1090.245 699.229 1091.752 698.259 Q 1093.259 697.289 1093.828 696.391 Q 1094.397 695.492 1094.217 694.199 Q 1094.037 692.905 1092.049 690.840 Q 1090.062 688.774 1081.592 684.711 Q 1073.122 680.647 1064.075 677.443 Q 1055.028 674.240 1050.434 672.602 Q 1045.840 670.964 1043.835 669.958 Q 1041.830 668.952 1040.806 668.151 Q 1039.782 667.349 1039.471 665.588 Q 1041.219 664.624 1043.112 664.134 Q 1045.005 663.644 1055.669 663.301 Q 1066.333 662.957 1072.423 662.660 Q 1078.513 662.363 1082.179 661.633 Q 1085.845 660.903 1087.158 660.386 Q 1088.470 659.869 1091.062 656.709 Q 1093.653 653.548 1092.468 650.437 Q 1091.282 647.327 1089.629 645.685 Q 1087.976 644.043 1084.926 641.777 Q 1081.876 639.511 1076.732 636.596 Q 1071.588 633.681 1065.438 630.358 Q 1059.287 627.036 1055.279 624.526 Q 1051.271 622.016 1049.279 620.026 Q 1047.287 618.037 1046.714 616.407 Q 1046.141 614.778 1046.573 613.923 Q 1047.006 613.068 1047.665 612.141 Q 1048.325 611.214 1058.607 609.284 Q 1068.889 607.354 1074.880 606.595 Q 1080.870 605.837 1084.339 604.703 Q 1087.807 603.570 1090.368 602.025 Q 1092.928 600.479 1094.426 596.545 Q 1095.924 592.611 1094.256 588.571 Q 1092.589 584.532 1084.737 579.567 Q 1076.885 574.602 1070.745 570.315 Q 1064.604 566.028 1061.663 563.355 Q 1058.723 560.683 1057.689 559.027 Q 1056.655 557.371 1056.121 555.650 Q 1055.587 553.928 1056.606 552.213 Q 1057.626 550.497 1064.402 547.744 Q 1071.179 544.991 1075.078 543.526 Q 1078.976 542.062 1081.435 540.733 Q 1083.894 539.403 1085.246 537.598 Q 1086.598 535.793 1087.338 531.390 Q 1088.078 526.986 1081.845 521.178 Q 1075.612 515.369 1070.388 510.917 Q 1065.165 506.464 1062.169 504.154 Q 1059.173 501.843 1057.096 499.996 Q 1055.020 498.148 1053.957 496.781 Q 1052.894 495.413 1052.456 494.146 Q 1052.018 492.879 1052.417 491.341 Q 1052.817 489.803 1055.305 488.032 Q 1057.793 486.260 1063.802 483.786 Q 1069.811 481.311 1073.192 480.145 Q 1076.573 478.978 1080.422 475.953 Q 1084.272 472.928 1084.323 469.788 Q 1084.374 466.648 1083.407 464.047 Q 1082.441 461.447 1077.317 455.465 Q 1072.193 449.483 1067.708 445.287 Q 1063.223 441.091 1061.153 438.978 Q 1059.083 436.866 1058.137 435.110 Q 1057.192 433.354 1057.002 429.616 Q 1056.813 425.878 1062.564 422.597 Q 1068.315 419.317 1073.673 417.170 Q 1079.030 415.024 1082.605 413.304 Q 1086.180 411.584 1088.019 408.688 Q 1089.858 405.792 1089.966 401.309 Q 1090.074 396.826 1087.066 392.465 Q 1084.058 388.104 1076.516 382.087 Q 1068.974 376.071 1063.588 371.516 Q 1058.201 366.962 1055.270 363.994 Q 1052.339 361.026 1050.958 358.112 Q 1049.578 355.198 1049.048 352.368 Q 1048.517 349.538 1054.381 344.463 Q 1060.245 339.389 1064.010 336.786 Q 1067.774 334.182 1070.314 331.690 Q 1072.854 329.197 1074.298 325.841 Q 1075.743 322.486 1074.491 314.975 Q 1073.239 307.465 1067.109 295.734 "></path>
    <path id="STROKE_08b8f061-a7f0-48d4-b986-6a87130add07" opacity="1.000" fill="none" stroke="#a2afb8" stroke-width="100.000" stroke-opacity="1.000" stroke-linecap="round" stroke-linejoin="round" d="M 1037.346 701.704 Q 1037.375 699.822 1037.388 700.364 Q 1037.701 698.930 1037.618 699.205 Q 1037.701 697.461 1037.702 697.879 Q 1037.702 697.614 1037.828 696.818 Q 1036.463 696.383 1050.051 700.364 "></path>
    <path id="STROKE_f77f2a17-0445-44ec-adde-8803b01794a7" opacity="1.000" fill="none" stroke="#a2afb8" stroke-width="100.000" stroke-opacity="1.000" stroke-linecap="round" stroke-linejoin="round" d="M 1051.118 836.786 Q 1051.118 836.786 1051.470 836.563 Q 1051.821 836.340 1049.265 831.711 Q 1046.709 827.082 1045.420 824.887 Q 1044.130 822.692 1043.520 821.292 Q 1042.910 819.893 1042.650 818.997 Q 1042.391 818.100 1041.936 816.582 Q 1041.482 815.063 1041.605 815.352 Q 1041.728 815.642 1040.949 814.553 Q 1040.169 813.464 1039.221 812.574 Q 1038.273 811.683 1037.746 810.986 Q 1037.220 810.288 1037.290 810.364 Q 1037.359 810.441 1037.333 810.258 Q 1037.306 810.075 1037.199 810.281 Q 1037.093 810.486 1037.158 808.809 Q 1037.222 807.132 1037.391 804.465 Q 1037.560 801.799 1036.928 799.056 Q 1036.296 796.313 1036.077 793.385 Q 1035.857 790.456 1036.575 788.149 Q 1037.294 785.841 1038.204 783.633 Q 1039.114 781.425 1039.446 776.375 Q 1039.777 771.325 1040.031 767.740 Q 1040.286 764.155 1040.983 760.510 Q 1041.679 756.865 1041.237 750.075 Q 1040.794 743.285 1039.107 736.470 Q 1037.420 729.655 1034.258 723.631 Q 1031.097 717.607 1029.057 713.243 Q 1027.017 708.880 1026.607 705.850 Q 1026.196 702.819 1027.145 699.755 Q 1028.094 696.691 1029.099 694.599 Q 1030.104 692.507 1030.150 692.310 Q 1030.197 692.113 1031.920 687.952 Q 1033.643 683.791 1035.234 678.463 Q 1036.825 673.135 1037.534 670.178 Q 1038.244 667.221 1038.561 661.842 Q 1038.878 656.462 1038.608 650.684 Q 1038.339 644.907 1036.844 638.113 Q 1035.350 631.318 1034.685 625.653 Q 1034.020 619.988 1033.472 614.547 Q 1032.925 609.106 1033.640 601.950 Q 1034.355 594.793 1035.453 590.355 Q 1036.552 585.917 1036.970 578.352 Q 1037.389 570.786 1037.394 566.517 Q 1037.400 562.248 1036.070 557.232 Q 1034.741 552.216 1033.124 544.957 Q 1031.506 537.698 1030.343 533.826 Q 1029.180 529.955 1029.064 523.900 Q 1028.949 517.845 1030.122 511.353 Q 1031.295 504.862 1031.513 500.427 Q 1031.730 495.992 1032.156 493.110 Q 1032.581 490.227 1032.239 483.305 Q 1031.898 476.382 1029.522 467.342 Q 1027.147 458.302 1025.673 453.575 Q 1024.199 448.848 1022.316 442.433 Q 1020.433 436.017 1020.261 426.331 Q 1020.090 416.645 1020.625 410.727 Q 1021.160 404.809 1021.363 399.400 Q 1021.566 393.990 1021.762 377.397 Q 1021.958 360.803 1022.623 348.366 Q 1023.289 335.930 1023.453 325.364 Q 1023.617 314.799 1022.991 302.892 Q 1022.366 290.985 1022.411 282.378 Q 1022.456 273.772 1022.293 269.249 Q 1022.130 264.726 1021.723 255.222 Q 1021.316 245.718 1021.481 236.044 Q 1021.646 226.371 1021.374 218.462 Q 1021.103 210.553 1021.055 201.157 Q 1021.007 191.762 1021.711 184.807 Q 1022.415 177.851 1022.736 175.100 Q 1023.057 172.349 1023.321 170.839 Q 1023.585 169.330 1024.187 164.321 Q 1024.788 159.312 1025.496 155.845 Q 1026.204 152.379 1026.092 143.355 Q 1025.979 134.331 1025.444 129.795 Q 1024.909 125.259 1024.229 120.266 Q 1023.549 115.273 1023.268 110.555 Q 1022.987 105.837 1022.992 102.008 Q 1022.998 98.180 1022.925 96.251 Q 1022.852 94.322 1022.964 91.853 Q 1023.076 89.385 1023.423 86.631 Q 1023.769 83.877 1023.936 81.128 Q 1024.102 78.378 1024.257 76.473 Q 1024.413 74.567 1024.770 70.334 Q 1025.127 66.100 1024.788 62.629 Q 1024.449 59.157 1023.986 56.696 Q 1023.522 54.235 1023.339 51.957 Q 1023.155 49.680 1023.549 48.361 Q 1023.942 47.042 1024.488 46.216 Q 1025.034 45.391 1025.133 45.184 Q 1025.232 44.977 1025.366 44.851 Q 1025.500 44.726 1025.377 44.858 Q 1025.254 44.991 1025.797 43.966 Q 1026.340 42.940 1029.477 42.106 Q 1032.613 41.271 1034.294 40.804 Q 1035.975 40.337 1036.621 40.037 Q 1037.268 39.738 1037.718 39.809 Q 1038.167 39.881 1038.383 39.850 Q 1038.598 39.819 1038.586 39.825 Q 1038.574 39.832 1038.516 39.877 Q 1038.457 39.923 1040.088 39.602 Q 1040.253 38.142 1036.969 37.607 Q 1033.685 37.073 1031.574 36.390 Q 1029.463 35.706 1028.454 34.975 Q 1027.445 34.244 1027.087 33.954 Q 1026.729 33.665 1026.688 33.595 Q 1026.646 33.525 1026.675 33.572 Q 1026.703 33.618 1026.276 33.267 Q 1025.848 32.916 1024.330 31.018 Q 1022.812 29.119 1021.892 28.150 Q 1020.972 27.180 1020.922 27.059 Q 1020.873 26.938 1020.646 26.450 Q 1020.418 25.962 1020.267 25.543 Q 1021.850 25.680 1021.428 25.725 Q 1022.469 26.301 1024.932 27.366 Q 1027.396 28.431 1029.007 28.918 Q 1030.618 29.406 1031.287 29.577 Q 1031.956 29.748 1032.434 29.862 Q 1032.912 29.976 1034.514 30.245 Q 1036.116 30.515 1036.853 30.487 Q 1037.590 30.458 1037.143 30.602 Q 1036.697 30.746 1041.646 30.920 Q 1046.595 31.095 1052.157 30.261 Q 1057.719 29.426 1068.063 28.898 Q 1078.407 28.369 1083.882 28.645 Q 1089.356 28.921 1091.698 28.754 Q 1094.039 28.586 1095.026 28.265 Q 1096.013 27.944 1096.566 27.930 Q 1097.119 27.916 1097.515 27.854 Q 1097.911 27.792 1097.843 27.841 Q 1097.775 27.890 1099.083 27.857 Q 1100.390 27.824 1102.795 27.183 Q 1105.200 26.541 1106.262 26.362 Q 1107.324 26.182 1108.003 26.074 Q 1108.682 25.965 1109.263 25.982 Q 1109.844 25.998 1109.760 26.009 Q 1109.676 26.020 1109.675 26.018 Q 1109.675 26.015 1112.142 25.926 Q 1114.610 25.838 1121.591 26.521 Q 1121.746 25.840 1121.594 27.686 Q 1121.441 29.531 1121.139 31.789 Q 1120.836 34.047 1120.863 35.395 Q 1120.890 36.743 1120.852 37.298 Q 1120.814 37.853 1120.982 38.687 Q 1121.150 39.522 1121.323 39.966 Q 1121.496 40.409 1121.588 41.042 Q 1121.679 41.675 1121.690 41.653 Q 1121.700 41.630 1123.569 46.237 Q 1125.438 50.843 1126.273 54.521 Q 1127.108 58.199 1127.172 62.186 Q 1127.235 66.172 1127.356 72.731 Q 1127.476 79.291 1128.466 84.593 Q 1129.456 89.895 1129.551 95.038 Q 1129.646 100.182 1129.610 103.083 Q 1129.573 105.984 1128.497 111.487 Q 1127.421 116.990 1124.708 130.785 Q 1121.994 144.580 1120.448 152.429 Q 1118.903 160.277 1118.578 163.736 Q 1118.254 167.195 1117.720 170.974 Q 1117.186 174.753 1116.749 178.187 Q 1116.312 181.622 1116.141 184.717 Q 1115.969 187.813 1117.275 198.180 Q 1118.580 208.546 1119.039 214.696 Q 1119.497 220.846 1119.495 223.828 Q 1119.493 226.809 1119.681 228.669 Q 1119.869 230.529 1120.293 233.540 Q 1120.716 236.550 1120.207 240.710 Q 1119.698 244.870 1119.137 248.969 Q 1118.577 253.069 1118.546 254.707 Q 1118.515 256.346 1118.504 259.108 Q 1118.493 261.870 1118.809 264.389 Q 1119.125 266.909 1119.448 271.377 Q 1119.771 275.845 1119.778 280.599 Q 1119.784 285.353 1119.292 301.059 Q 1118.800 316.766 1118.927 327.123 Q 1119.054 337.481 1119.373 343.843 Q 1119.691 350.205 1120.185 354.613 Q 1120.678 359.022 1121.721 365.303 Q 1122.764 371.584 1123.104 378.846 Q 1123.444 386.107 1123.512 389.430 Q 1123.581 392.753 1122.905 396.047 Q 1122.229 399.341 1122.150 406.439 Q 1122.071 413.537 1122.122 419.186 Q 1122.173 424.834 1122.662 430.757 Q 1123.152 436.681 1123.685 440.291 Q 1124.219 443.901 1125.136 449.283 Q 1126.053 454.664 1126.435 457.292 Q 1126.817 459.919 1127.522 463.448 Q 1128.227 466.976 1130.176 476.012 Q 1132.124 485.048 1133.252 489.124 Q 1134.379 493.200 1134.559 499.801 Q 1134.739 506.403 1134.979 511.195 Q 1135.218 515.987 1134.838 527.864 Q 1134.459 539.741 1133.991 545.872 Q 1133.524 552.004 1133.150 554.995 Q 1132.777 557.986 1132.809 558.792 Q 1132.842 559.598 1131.280 570.515 Q 1129.718 581.433 1128.325 587.987 Q 1126.932 594.541 1127.015 605.229 Q 1127.099 615.917 1127.269 621.789 Q 1127.439 627.660 1127.429 630.163 Q 1127.419 632.667 1127.375 636.469 Q 1127.332 640.271 1127.325 650.893 Q 1127.319 661.514 1127.511 667.327 Q 1127.703 673.140 1128.082 676.026 Q 1128.461 678.911 1129.174 683.222 Q 1129.887 687.533 1130.659 691.362 Q 1131.430 695.191 1131.721 697.322 Q 1132.013 699.452 1132.231 699.405 Q 1132.450 699.359 1132.818 710.855 Q 1133.187 722.351 1133.429 729.935 Q 1133.672 737.520 1133.649 741.292 Q 1133.626 745.065 1134.069 746.552 Q 1134.512 748.040 1135.159 754.275 Q 1135.806 760.511 1135.851 765.044 Q 1135.896 769.576 1136.018 772.959 Q 1136.141 776.341 1136.110 777.838 Q 1136.079 779.334 1136.090 780.044 Q 1136.101 780.753 1136.108 781.087 Q 1136.115 781.420 1136.118 781.061 Q 1136.122 780.702 1135.158 785.694 Q 1134.195 790.687 1133.747 793.539 Q 1133.299 796.392 1133.271 798.061 Q 1133.243 799.730 1133.247 800.378 Q 1133.250 801.026 1133.250 801.433 Q 1133.249 801.840 1133.249 802.180 Q 1133.250 802.521 1133.258 802.299 Q 1133.266 802.078 1133.227 802.929 Q 1133.188 803.780 1133.203 804.469 Q 1133.218 805.158 1133.401 805.935 Q 1133.585 806.712 1133.667 806.736 Q 1133.749 806.760 1133.642 806.664 Q 1133.534 806.569 1133.825 806.963 Q 1134.115 807.357 1134.089 807.322 Q 1134.062 807.286 1134.198 807.457 Q 1134.335 807.628 1134.896 808.355 Q 1135.458 809.081 1135.457 809.081 Q 1135.456 809.081 1135.392 809.009 Q 1135.328 808.936 1135.468 809.113 Q 1135.608 809.290 1135.516 809.155 Q 1135.424 809.019 1135.940 809.754 Q 1136.457 810.489 1136.386 810.422 Q 1136.315 810.355 1136.313 810.327 Q 1136.311 810.300 1136.303 810.292 Q 1136.294 810.283 1136.285 810.261 Q 1136.276 810.239 1136.272 810.238 Q 1136.269 810.238 1136.266 810.236 Q 1136.264 810.234 1136.273 810.247 Q 1136.281 810.260 1136.251 810.223 Q 1136.221 810.186 1136.257 810.243 Q 1136.292 810.301 1136.317 810.342 Q 1136.341 810.382 1136.556 810.705 Q 1136.771 811.028 1137.380 811.979 Q 1137.989 812.929 1137.995 812.932 Q 1138.002 812.934 1138.159 813.991 Q 1138.315 815.047 1138.257 814.787 Q 1138.198 814.526 1138.224 814.649 Q 1138.249 814.772 1138.226 815.074 Q 1138.204 815.376 1138.353 816.089 Q 1138.502 816.803 1138.546 816.787 Q 1138.590 816.771 1138.582 816.725 Q 1138.575 816.680 1138.695 816.995 Q 1138.814 817.311 1138.841 817.925 Q 1138.867 818.540 1138.838 818.497 Q 1138.892 820.030 1138.886 820.151 Q 1138.881 820.272 1138.984 820.019 Q 1139.592 820.902 1139.508 820.689 Q 1139.944 821.281 1139.822 821.220 Q 1139.822 821.261 1139.822 821.513 Q 1140.023 821.896 1132.929 821.379 Q 1125.835 820.861 1121.863 820.064 Q 1117.891 819.267 1116.496 818.829 Q 1115.102 818.391 1114.382 817.804 Q 1113.661 817.217 1113.694 817.048 Q 1113.727 816.880 1113.744 816.892 Q 1113.761 816.904 1113.516 816.582 Q 1113.271 816.261 1111.893 808.154 Q 1110.515 800.047 1109.948 793.184 Q 1109.380 786.322 1109.395 782.890 Q 1109.411 779.457 1109.414 775.728 Q 1109.418 771.999 1109.461 770.017 Q 1109.505 768.036 1109.543 766.743 Q 1109.581 765.450 1109.589 764.496 Q 1109.598 763.542 1109.598 763.080 Q 1109.598 762.618 1109.501 761.958 Q 1109.403 761.298 1109.806 758.072 Q 1110.208 754.845 1108.971 744.779 Q 1107.735 734.713 1106.794 729.065 Q 1105.853 723.418 1102.779 708.790 Q 1099.705 694.161 1098.041 685.165 Q 1096.377 676.168 1095.279 670.486 Q 1094.181 664.804 1092.090 652.681 Q 1090.000 640.559 1089.000 629.249 Q 1088.001 617.938 1087.809 611.949 Q 1087.617 605.959 1087.601 600.236 Q 1087.585 594.514 1087.325 583.851 Q 1087.065 573.188 1086.468 566.591 Q 1085.870 559.993 1085.387 553.551 Q 1084.904 547.108 1084.291 530.782 Q 1083.678 514.455 1083.938 500.572 Q 1084.197 486.688 1084.680 479.897 Q 1085.163 473.106 1085.106 470.279 Q 1085.050 467.451 1085.058 461.452 Q 1085.067 455.454 1084.518 448.351 Q 1083.969 441.247 1083.525 434.830 Q 1083.081 428.412 1082.474 422.500 Q 1081.868 416.589 1079.985 398.679 Q 1078.103 380.768 1077.171 369.707 Q 1076.240 358.645 1075.945 351.815 Q 1075.650 344.984 1075.602 340.882 Q 1075.553 336.780 1075.564 333.707 Q 1075.575 330.634 1075.467 327.280 Q 1075.359 323.925 1076.153 305.647 Q 1076.947 287.370 1077.264 277.650 Q 1077.582 267.931 1077.443 263.119 Q 1077.305 258.307 1077.677 246.161 Q 1078.048 234.016 1077.263 214.266 Q 1076.478 194.516 1075.644 184.298 Q 1074.811 174.080 1074.203 165.719 Q 1073.594 157.358 1072.900 149.798 Q 1072.205 142.238 1072.175 135.015 Q 1072.145 127.792 1072.024 115.956 Q 1071.902 104.120 1071.602 97.358 Q 1071.301 90.596 1071.403 82.744 Q 1071.505 74.893 1070.093 64.299 Q 1068.680 53.705 1067.572 47.991 Q 1066.465 42.278 1065.990 39.773 Q 1065.516 37.269 1064.881 35.697 Q 1064.246 34.124 1063.001 27.825 Q 1061.756 21.525 1061.828 14.281 Q 1061.900 7.037 1061.668 1.979 Q 1061.437 -3.080 1060.796 -7.275 Q 1060.156 -11.471 1059.672 -14.026 Q 1059.188 -16.581 1058.621 -18.324 Q 1058.055 -20.067 1057.897 -25.510 Q 1057.739 -30.952 1057.579 -33.765 Q 1057.418 -36.578 1057.349 -37.876 Q 1057.280 -39.175 1057.211 -42.181 Q 1057.142 -45.187 1057.293 -54.357 Q 1057.444 -63.528 1057.808 -77.106 Q 1058.172 -90.683 1058.131 -97.592 Q 1058.089 -104.501 1058.009 -114.457 Q 1057.928 -124.412 1057.955 -129.189 Q 1057.982 -133.967 1057.926 -135.918 Q 1057.870 -137.870 1057.965 -141.137 Q 1058.059 -144.403 1058.094 -152.451 Q 1058.128 -160.498 1057.790 -164.888 Q 1057.451 -169.278 1057.244 -176.480 Q 1057.037 -183.681 1056.711 -190.240 Q 1056.385 -196.799 1056.146 -200.404 Q 1055.906 -204.008 1055.167 -209.732 Q 1054.428 -215.456 1054.032 -221.898 Q 1053.636 -228.340 1053.466 -233.605 Q 1053.297 -238.870 1053.198 -241.349 Q 1053.099 -243.828 1051.796 -249.192 Q 1050.492 -254.556 1049.560 -256.772 Q 1048.628 -258.989 1048.167 -261.729 Q 1047.706 -264.469 1047.646 -267.426 Q 1047.586 -270.383 1047.691 -272.464 Q 1047.797 -274.545 1047.892 -275.247 Q 1047.988 -275.949 1047.929 -276.115 Q 1047.870 -276.281 1048.030 -276.019 Q 1048.189 -275.758 1048.198 -279.618 Q 1048.207 -283.479 1047.733 -286.067 Q 1047.259 -288.654 1047.212 -290.350 Q 1047.164 -292.046 1047.199 -293.382 Q 1047.234 -294.718 1047.465 -296.042 Q 1047.696 -297.366 1047.823 -298.147 Q 1047.950 -298.927 1047.895 -298.713 Q 1047.839 -298.499 1047.998 -299.014 Q 1048.157 -299.530 1048.291 -300.261 Q 1048.426 -300.992 1048.439 -301.129 Q 1048.451 -301.267 1048.450 -301.297 Q 1048.448 -301.328 1048.460 -301.265 Q 1048.473 -301.201 1048.510 -302.415 Q 1048.548 -303.629 1048.546 -304.572 Q 1048.544 -305.516 1048.544 -306.188 Q 1048.544 -306.861 1048.544 -306.683 Q 1048.544 -306.505 1048.544 -306.533 Q 1048.544 -306.560 1048.510 -306.802 Q 1048.476 -307.044 1048.523 -306.913 Q 1048.571 -306.782 1048.607 -308.112 Q 1048.644 -309.442 1048.340 -310.541 Q 1048.036 -311.640 1047.854 -312.008 Q 1047.672 -312.375 1047.458 -312.864 Q 1047.245 -313.352 1047.130 -313.596 Q 1047.016 -313.840 1047.115 -313.686 Q 1047.215 -313.532 1047.135 -313.713 Q 1047.055 -313.893 1047.138 -313.754 Q 1047.220 -313.615 1046.854 -313.977 Q 1046.487 -314.339 1046.157 -316.421 Q 1045.828 -318.503 1045.645 -319.369 Q 1045.463 -320.235 1045.452 -320.758 Q 1045.441 -321.280 1045.426 -321.271 Q 1045.410 -321.263 1045.425 -321.218 Q 1045.440 -321.174 1045.437 -321.159 Q 1045.435 -321.143 1045.441 -321.130 Q 1045.447 -321.116 1045.448 -321.107 Q 1045.450 -321.098 1045.450 -321.096 Q 1045.450 -321.094 1045.442 -321.108 Q 1045.434 -321.121 1045.428 -321.139 Q 1045.422 -321.156 1045.434 -321.106 Q 1045.446 -321.057 1045.318 -321.553 Q 1045.190 -322.050 1044.902 -323.468 Q 1045.731 -322.822 1045.603 -322.979 Q 1047.147 -322.121 1046.629 -322.407 Q 1047.820 -321.442 1049.710 -320.635 Q 1051.600 -319.829 1053.582 -319.138 Q 1055.563 -318.447 1057.055 -317.906 Q 1058.547 -317.365 1059.444 -317.011 Q 1060.340 -316.657 1061.476 -316.259 Q 1062.613 -315.860 1062.839 -315.742 Q 1063.064 -315.625 1065.971 -315.299 Q 1068.878 -314.973 1070.428 -314.661 Q 1071.977 -314.349 1071.832 -314.375 Q 1071.687 -314.401 1071.891 -314.317 Q 1072.094 -314.234 1072.718 -314.146 Q 1073.342 -314.057 1074.252 -314.056 Q 1075.161 -314.055 1075.034 -314.058 Q 1074.907 -314.060 1075.072 -314.058 Q 1075.236 -314.056 1075.597 -314.051 Q 1075.958 -314.047 1076.006 -314.046 Q 1076.054 -314.044 1076.485 -314.100 Q 1076.915 -314.156 1077.483 -314.239 Q 1078.052 -314.322 1077.877 -314.341 Q 1077.701 -314.359 1077.710 -314.227 Q 1077.719 -314.095 1078.206 -314.401 Q 1078.692 -314.706 1079.400 -315.410 Q 1080.107 -316.113 1080.049 -316.063 Q 1079.991 -316.012 1079.958 -315.964 Q 1079.924 -315.917 1079.930 -315.936 Q 1079.937 -315.956 1080.593 -316.644 Q 1081.249 -317.332 1081.291 -317.406 Q 1081.333 -317.480 1081.433 -317.601 Q 1081.533 -317.722 1081.651 -317.909 Q 1081.770 -318.097 1082.051 -318.431 Q 1082.333 -318.765 1082.687 -319.334 Q 1083.040 -319.904 1083.635 -320.668 Q 1084.231 -321.431 1084.727 -322.044 Q 1085.224 -322.657 1085.372 -322.805 Q 1085.520 -322.953 1085.446 -322.863 Q 1085.371 -322.772 1085.361 -322.769 Q 1085.351 -322.767 1085.524 -322.932 Q 1085.698 -323.098 1085.624 -323.069 Q 1085.550 -323.041 1086.105 -323.556 Q 1086.660 -324.072 1086.678 -324.071 Q 1086.696 -324.071 1086.610 -324.010 Q 1086.525 -323.950 1087.385 -324.535 Q 1088.246 -325.121 1088.228 -324.976 Q 1090.547 -325.152 1089.735 -325.115 Q 1090.767 -325.257 1090.667 -325.255 Q 1090.115 -325.265 1091.866 -325.263 Q 1093.618 -325.262 1094.229 -325.220 Q 1094.839 -325.178 1095.593 -325.110 Q 1096.347 -325.041 1096.245 -325.051 Q 1096.143 -325.062 1096.288 -325.060 Q 1096.433 -325.059 1096.481 -325.066 Q 1096.528 -325.073 1097.056 -325.025 Q 1097.583 -324.977 1097.581 -325.047 Q 1097.578 -325.117 1097.578 -325.047 Q 1097.577 -324.977 1097.692 -325.068 Q 1097.808 -325.159 1097.973 -325.322 Q 1098.138 -325.485 1098.129 -325.470 Q 1098.121 -325.454 1098.059 -325.455 Q 1097.997 -325.455 1098.287 -325.732 Q 1098.576 -326.008 1099.429 -326.612 Q 1100.282 -327.216 1100.244 -327.191 Q 1100.206 -327.166 1100.179 -327.098 Q 1100.246 -327.810 1100.192 -327.514 Q 1100.137 -327.218 1100.606 -328.614 Q 1101.074 -330.010 1101.036 -329.901 Q 1100.997 -329.791 1100.891 -329.778 Q 1100.891 -329.946 1100.891 -330.839 Q 1100.891 -328.915 1100.891 -329.373 Q 1100.756 -327.297 1100.765 -327.907 Q 1100.284 -326.013 1100.315 -326.316 Q 1099.979 -325.589 1099.151 -321.258 Q 1098.323 -316.927 1100.099 -310.070 Q 1101.875 -303.213 1102.849 -297.735 Q 1103.822 -292.257 1104.419 -289.607 Q 1105.016 -286.957 1105.620 -285.124 Q 1106.223 -283.291 1106.572 -281.055 Q 1106.921 -278.818 1106.937 -277.133 Q 1106.953 -275.447 1106.950 -274.642 Q 1106.946 -273.838 1106.902 -273.405 Q 1106.857 -272.972 1106.804 -272.799 Q 1106.751 -272.626 1106.757 -272.124 Q 1106.763 -271.622 1106.438 -271.730 Q 1106.112 -271.837 1105.837 -263.981 Q 1105.562 -256.125 1105.657 -251.607 Q 1105.752 -247.088 1105.621 -240.194 Q 1105.490 -233.300 1104.953 -226.990 Q 1104.417 -220.679 1103.994 -215.756 Q 1103.572 -210.833 1103.327 -206.742 Q 1103.082 -202.650 1102.252 -193.398 Q 1101.423 -184.147 1100.125 -174.036 Q 1098.826 -163.925 1098.641 -158.074 Q 1098.457 -152.224 1098.421 -149.429 Q 1098.384 -146.634 1098.419 -145.061 Q 1098.454 -143.489 1098.251 -142.375 Q 1098.047 -141.261 1098.818 -131.268 Q 1099.589 -121.274 1100.179 -114.593 Q 1100.769 -107.912 1100.742 -104.232 Q 1100.716 -100.553 1099.309 -94.536 Q 1097.901 -88.520 1096.609 -81.994 Q 1095.318 -75.467 1095.009 -69.793 Q 1094.700 -64.119 1094.603 -54.780 Q 1094.506 -45.441 1094.610 -39.548 Q 1094.715 -33.655 1093.485 -28.976 Q 1092.255 -24.297 1091.730 -22.285 Q 1091.205 -20.274 1085.612 -11.340 "></path>
    <path id="STROKE_55c01d28-c9a1-4d8c-9f64-6ccc72600666" opacity="1.000" fill="none" stroke="#85929c" stroke-width="31.000" stroke-opacity="1.000" stroke-linecap="round" stroke-linejoin="round" d="M 1080.056 252.973 L 1079.604 173.356 L 1159.221 172.904 L 1159.673 252.521 Z"></path>
    <path id="STROKE_4af42409-bfee-4894-8688-568a1935afa5" opacity="1.000" fill="none" stroke="#85929c" stroke-width="30.000" stroke-opacity="1.000" stroke-linecap="round" stroke-linejoin="round" d="M 1104.000 224.000 L 1104.000 240.000 L 1088.000 240.000 L 1088.000 224.000 L 1136.000 224.000 L 1136.000 224.000 L 1152.000 224.000 "></path>
    <path id="STROKE_04f27c47-9001-496e-be05-92849ca7e0e9" opacity="1.000" fill="none" stroke="#85929c" stroke-width="30.000" stroke-opacity="1.000" stroke-linecap="round" stroke-linejoin="round" d="M 1115.814 231.600 Q 1115.814 231.642 1115.814 231.684 Q 1114.781 231.705 1112.005 230.874 Q 1112.275 231.676 1139.822 235.955 Q 1138.936 236.131 1116.631 231.027 Q 1116.631 230.930 1116.631 230.790 Q 1118.423 230.387 1118.221 230.441 Q 1117.073 230.385 1120.338 230.075 Q 1123.603 229.764 1126.821 229.169 Q 1130.039 228.574 1130.997 227.527 Q 1131.956 226.480 1131.831 225.582 Q 1131.707 224.683 1131.486 224.585 Q 1131.266 224.487 1130.149 224.229 Q 1129.032 223.971 1128.899 223.915 Q 1128.766 223.859 1123.778 223.935 Q 1123.726 224.061 1123.726 224.187 Q 1124.439 224.347 1127.768 224.463 Q 1131.097 224.579 1132.893 224.497 Q 1134.688 224.415 1135.448 222.651 Q 1136.208 220.887 1133.680 219.295 Q 1131.152 217.703 1125.105 216.306 Q 1119.058 214.909 1112.989 213.814 L 1112.989 213.758 Q 1112.750 213.536 1117.481 213.638 Q 1122.212 213.739 1124.514 213.445 Q 1126.816 213.150 1128.481 212.650 Q 1130.145 212.149 1130.695 211.213 Q 1131.244 210.277 1130.638 209.317 Q 1130.032 208.358 1129.634 208.278 Q 1129.235 208.199 1127.719 207.415 Q 1126.202 206.631 1110.854 204.712 Q 1110.683 204.592 1115.954 204.640 Q 1121.225 204.688 1124.765 204.012 Q 1128.304 203.337 1129.815 202.882 Q 1131.325 202.426 1132.221 201.417 Q 1133.118 200.408 1133.304 199.071 Q 1133.491 197.734 1133.142 197.323 Q 1132.793 196.912 1130.905 196.013 Q 1129.017 195.115 1126.928 194.479 L 1126.928 194.437 Q 1126.808 194.534 1141.412 193.460 Q 1140.238 193.250 1135.908 194.074 Q 1136.213 193.181 1135.935 196.141 Q 1135.656 199.102 1135.651 201.117 Q 1135.646 203.131 1136.173 204.017 Q 1136.700 204.902 1138.838 206.946 Q 1137.049 206.946 1137.551 206.946 Q 1136.867 206.867 1136.933 206.806 Q 1136.711 205.586 1139.026 204.377 Q 1136.919 202.122 1137.373 202.897 Q 1135.045 201.631 1115.291 195.666 Q 1117.276 195.087 1116.840 195.233 Q 1118.308 195.470 1119.120 194.447 Q 1119.932 193.424 1120.101 192.822 Q 1120.271 192.221 1120.232 191.783 Q 1120.193 191.346 1120.082 191.571 Q 1119.972 191.796 1120.275 191.366 Q 1120.578 190.936 1117.242 189.404 Q 1113.906 187.871 1110.421 187.483 Q 1106.935 187.095 1105.163 187.208 Q 1103.391 187.321 1102.704 187.453 Q 1102.018 187.585 1101.723 188.047 Q 1101.428 188.508 1101.554 188.454 Q 1101.680 188.399 1101.523 188.482 Q 1101.367 188.565 1101.107 190.181 Q 1100.847 191.796 1104.533 196.685 Q 1106.218 196.271 1094.633 198.513 Q 1094.592 200.590 1094.633 200.007 Q 1093.518 201.171 1110.226 207.029 Q 1110.184 207.029 1108.719 206.750 "></path>
    <path id="STROKE_a50438c9-766a-47d3-9e04-ff7e1370292c" opacity="1.000" fill="none" stroke="#6d7881" stroke-width="31.000" stroke-opacity="1.000" stroke-linecap="round" stroke-linejoin="round" d="M 1100.569 230.964 L 1100.714 190.907 L 1140.771 191.051 L 1140.626 231.109 Z"></path>
    <path id="STROKE_f94815a4-e93f-46c7-be99-ae12393b8c36" opacity="1.000" fill="none" stroke="#6d7881" stroke-width="30.000" stroke-opacity="1.000" stroke-linecap="round" stroke-linejoin="round" d="M 1115.103 208.984 Q 1115.701 209.551 1116.036 210.144 Q 1116.372 210.736 1116.397 210.810 Q 1116.422 210.884 1116.182 210.833 Q 1115.941 210.783 1118.096 211.148 Q 1117.824 210.068 1117.698 210.212 "></path>
  </g>
</svg>